<svg width="100" height="100" viewBox="0 0 100 100" fill="none" xmlns="http://www.w3.org/2000/svg">
<path d="M44.2986 22.8666L16.0653 70C15.4832 71.008 15.1752 72.1509 15.1719 73.315C15.1686 74.4791 15.4702 75.6237 16.0467 76.635C16.6231 77.6464 17.4544 78.4891 18.4576 79.0795C19.4609 79.6698 20.6013 79.9872 21.7653 80H78.2319C79.3959 79.9872 80.5363 79.6698 81.5396 79.0795C82.5428 78.4891 83.3741 77.6464 83.9505 76.635C84.527 75.6237 84.8286 74.4791 84.8253 73.315C84.822 72.1509 84.514 71.008 83.9319 70L55.6986 22.8666C55.1044 21.887 54.2677 21.077 53.2693 20.5149C52.2708 19.9528 51.1444 19.6575 49.9986 19.6575C48.8528 19.6575 47.7264 19.9528 46.7279 20.5149C45.7295 21.077 44.8928 21.887 44.2986 22.8666Z" stroke="#FF002E" stroke-width="5" stroke-linecap="round" stroke-linejoin="round"/>
<path d="M50 40V53.3333" stroke="#FF002E" stroke-width="5" stroke-linecap="round" stroke-linejoin="round"/>
<path d="M50 66.6667H50.03" stroke="#FF002E" stroke-width="5" stroke-linecap="round" stroke-linejoin="round"/>
</svg>
