<svg width="176" height="152" viewBox="0 0 176 152" fill="none" xmlns="http://www.w3.org/2000/svg">
<g style="mix-blend-mode:screen">
<path d="M14.36 121L19.454 108.346H21.452L26.528 121H23.918L19.994 110.614H20.894L16.916 121H14.36ZM17.06 118.642V116.59H23.864V118.642H17.06ZM29.5243 121L25.6903 112.306H28.2823L31.0363 119.47H29.7583L32.5303 112.306H35.0323L31.2163 121H29.5243ZM39.5101 121.18C38.7181 121.18 38.0041 120.982 37.3681 120.586C36.7321 120.19 36.2341 119.65 35.8741 118.966C35.5141 118.282 35.3341 117.514 35.3341 116.662C35.3341 115.798 35.5141 115.024 35.8741 114.34C36.2341 113.656 36.7321 113.116 37.3681 112.72C38.0041 112.324 38.7181 112.126 39.5101 112.126C40.1341 112.126 40.6921 112.252 41.1841 112.504C41.6761 112.756 42.0661 113.11 42.3541 113.566C42.6541 114.01 42.8161 114.514 42.8401 115.078V118.21C42.8161 118.786 42.6541 119.296 42.3541 119.74C42.0661 120.184 41.6761 120.538 41.1841 120.802C40.6921 121.054 40.1341 121.18 39.5101 121.18ZM39.9421 119.002C40.6021 119.002 41.1361 118.786 41.5441 118.354C41.9521 117.91 42.1561 117.34 42.1561 116.644C42.1561 116.188 42.0601 115.786 41.8681 115.438C41.6881 115.078 41.4301 114.802 41.0941 114.61C40.7701 114.406 40.3861 114.304 39.9421 114.304C39.5101 114.304 39.1261 114.406 38.7901 114.61C38.4661 114.802 38.2081 115.078 38.0161 115.438C37.8361 115.786 37.7461 116.188 37.7461 116.644C37.7461 117.112 37.8361 117.526 38.0161 117.886C38.2081 118.234 38.4661 118.51 38.7901 118.714C39.1261 118.906 39.5101 119.002 39.9421 119.002ZM42.0301 121V118.66L42.4081 116.536L42.0301 114.448V112.306H44.3701V121H42.0301ZM46.4561 121V112.306H48.8321V121H46.4561ZM47.6441 110.902C47.2601 110.902 46.9421 110.776 46.6901 110.524C46.4381 110.26 46.3121 109.936 46.3121 109.552C46.3121 109.18 46.4381 108.862 46.6901 108.598C46.9421 108.334 47.2601 108.202 47.6441 108.202C48.0401 108.202 48.3581 108.334 48.5981 108.598C48.8501 108.862 48.9761 109.18 48.9761 109.552C48.9761 109.936 48.8501 110.26 48.5981 110.524C48.3581 110.776 48.0401 110.902 47.6441 110.902ZM50.921 121V107.986H53.279V121H50.921ZM59.0042 121.18C58.2122 121.18 57.4982 120.982 56.8622 120.586C56.2262 120.19 55.7282 119.65 55.3682 118.966C55.0082 118.282 54.8282 117.514 54.8282 116.662C54.8282 115.798 55.0082 115.024 55.3682 114.34C55.7282 113.656 56.2262 113.116 56.8622 112.72C57.4982 112.324 58.2122 112.126 59.0042 112.126C59.6282 112.126 60.1862 112.252 60.6782 112.504C61.1702 112.756 61.5602 113.11 61.8482 113.566C62.1482 114.01 62.3102 114.514 62.3342 115.078V118.21C62.3102 118.786 62.1482 119.296 61.8482 119.74C61.5602 120.184 61.1702 120.538 60.6782 120.802C60.1862 121.054 59.6282 121.18 59.0042 121.18ZM59.4362 119.002C60.0962 119.002 60.6302 118.786 61.0382 118.354C61.4462 117.91 61.6502 117.34 61.6502 116.644C61.6502 116.188 61.5542 115.786 61.3622 115.438C61.1822 115.078 60.9242 114.802 60.5882 114.61C60.2642 114.406 59.8802 114.304 59.4362 114.304C59.0042 114.304 58.6202 114.406 58.2842 114.61C57.9602 114.802 57.7022 115.078 57.5102 115.438C57.3302 115.786 57.2402 116.188 57.2402 116.644C57.2402 117.112 57.3302 117.526 57.5102 117.886C57.7022 118.234 57.9602 118.51 58.2842 118.714C58.6202 118.906 59.0042 119.002 59.4362 119.002ZM61.5242 121V118.66L61.9022 116.536L61.5242 114.448V112.306H63.8642V121H61.5242ZM70.7743 121.18C70.1503 121.18 69.5863 121.048 69.0823 120.784C68.5783 120.52 68.1763 120.16 67.8763 119.704C67.5763 119.248 67.4143 118.738 67.3903 118.174V115.078C67.4143 114.514 67.5763 114.01 67.8763 113.566C68.1883 113.11 68.5963 112.756 69.1003 112.504C69.6043 112.252 70.1623 112.126 70.7743 112.126C71.5783 112.126 72.2983 112.324 72.9343 112.72C73.5703 113.116 74.0683 113.656 74.4283 114.34C74.8003 115.024 74.9863 115.798 74.9863 116.662C74.9863 117.514 74.8003 118.282 74.4283 118.966C74.0683 119.65 73.5703 120.19 72.9343 120.586C72.2983 120.982 71.5783 121.18 70.7743 121.18ZM70.3783 119.002C70.8103 119.002 71.1883 118.906 71.5123 118.714C71.8483 118.51 72.1063 118.234 72.2863 117.886C72.4783 117.526 72.5743 117.112 72.5743 116.644C72.5743 116.188 72.4783 115.786 72.2863 115.438C72.1063 115.078 71.8483 114.802 71.5123 114.61C71.1763 114.406 70.7923 114.304 70.3603 114.304C69.9283 114.304 69.5443 114.406 69.2083 114.61C68.8843 114.802 68.6263 115.078 68.4343 115.438C68.2543 115.786 68.1643 116.188 68.1643 116.644C68.1643 117.112 68.2543 117.526 68.4343 117.886C68.6263 118.234 68.8903 118.51 69.2263 118.714C69.5623 118.906 69.9463 119.002 70.3783 119.002ZM65.9503 121V107.986H68.3083V114.448L67.9123 116.536L68.2903 118.66V121H65.9503ZM76.5323 121V107.986H78.8903V121H76.5323ZM85.1375 121.18C84.2255 121.18 83.4155 120.988 82.7075 120.604C81.9995 120.208 81.4355 119.668 81.0155 118.984C80.6075 118.3 80.4035 117.52 80.4035 116.644C80.4035 115.78 80.6015 115.012 80.9975 114.34C81.4055 113.656 81.9575 113.116 82.6535 112.72C83.3495 112.312 84.1235 112.108 84.9755 112.108C85.8155 112.108 86.5535 112.3 87.1895 112.684C87.8375 113.056 88.3415 113.572 88.7015 114.232C89.0735 114.88 89.2595 115.618 89.2595 116.446C89.2595 116.602 89.2475 116.764 89.2235 116.932C89.2115 117.088 89.1815 117.268 89.1335 117.472L81.8255 117.49V115.726L88.0355 115.708L87.0815 116.446C87.0575 115.93 86.9615 115.498 86.7935 115.15C86.6375 114.802 86.4035 114.538 86.0915 114.358C85.7915 114.166 85.4195 114.07 84.9755 114.07C84.5075 114.07 84.0995 114.178 83.7515 114.394C83.4035 114.598 83.1335 114.892 82.9415 115.276C82.7615 115.648 82.6715 116.092 82.6715 116.608C82.6715 117.136 82.7675 117.598 82.9595 117.994C83.1635 118.378 83.4515 118.678 83.8235 118.894C84.1955 119.098 84.6275 119.2 85.1195 119.2C85.5635 119.2 85.9655 119.128 86.3255 118.984C86.6855 118.828 86.9975 118.6 87.2615 118.3L88.6475 119.686C88.2275 120.178 87.7115 120.55 87.0995 120.802C86.4995 121.054 85.8455 121.18 85.1375 121.18ZM95.3855 121V111.37C95.3855 110.674 95.5355 110.062 95.8355 109.534C96.1355 108.994 96.5615 108.568 97.1135 108.256C97.6655 107.944 98.3135 107.788 99.0575 107.788C99.6215 107.788 100.107 107.884 100.515 108.076C100.923 108.268 101.289 108.532 101.613 108.868L100.119 110.38C99.9875 110.248 99.8435 110.146 99.6875 110.074C99.5315 110.002 99.3335 109.966 99.0935 109.966C98.6615 109.966 98.3255 110.086 98.0855 110.326C97.8575 110.554 97.7435 110.884 97.7435 111.316V121H95.3855ZM93.3695 114.376V112.306H100.317V114.376H93.3695ZM105.456 121.18C104.58 121.18 103.788 120.982 103.08 120.586C102.384 120.178 101.826 119.632 101.406 118.948C100.998 118.252 100.794 117.478 100.794 116.626C100.794 115.774 100.998 115.012 101.406 114.34C101.814 113.656 102.372 113.116 103.08 112.72C103.788 112.312 104.574 112.108 105.438 112.108C106.326 112.108 107.118 112.312 107.814 112.72C108.522 113.116 109.08 113.656 109.488 114.34C109.896 115.012 110.1 115.774 110.1 116.626C110.1 117.478 109.896 118.252 109.488 118.948C109.08 119.632 108.522 120.178 107.814 120.586C107.118 120.982 106.332 121.18 105.456 121.18ZM105.438 118.984C105.882 118.984 106.272 118.888 106.608 118.696C106.956 118.492 107.22 118.216 107.4 117.868C107.592 117.508 107.688 117.1 107.688 116.644C107.688 116.188 107.592 115.786 107.4 115.438C107.208 115.09 106.944 114.82 106.608 114.628C106.272 114.424 105.882 114.322 105.438 114.322C105.006 114.322 104.622 114.424 104.286 114.628C103.95 114.82 103.686 115.09 103.494 115.438C103.302 115.786 103.206 116.188 103.206 116.644C103.206 117.1 103.302 117.508 103.494 117.868C103.686 118.216 103.95 118.492 104.286 118.696C104.622 118.888 105.006 118.984 105.438 118.984ZM111.618 121V112.306H113.976V121H111.618ZM113.976 116.194L113.058 115.582C113.166 114.514 113.478 113.674 113.994 113.062C114.51 112.438 115.254 112.126 116.226 112.126C116.646 112.126 117.024 112.198 117.36 112.342C117.696 112.474 118.002 112.696 118.278 113.008L116.802 114.7C116.67 114.556 116.508 114.448 116.316 114.376C116.136 114.304 115.926 114.268 115.686 114.268C115.182 114.268 114.768 114.43 114.444 114.754C114.132 115.066 113.976 115.546 113.976 116.194ZM125.261 121L122.003 112.306H124.379L126.503 118.624L125.783 118.642L127.961 112.306H129.671L131.849 118.642L131.129 118.624L133.253 112.306H135.629L132.389 121H130.679L128.483 114.988H129.149L126.953 121H125.261ZM140.665 121.18C139.789 121.18 138.997 120.982 138.289 120.586C137.593 120.178 137.035 119.632 136.615 118.948C136.207 118.252 136.003 117.478 136.003 116.626C136.003 115.774 136.207 115.012 136.615 114.34C137.023 113.656 137.581 113.116 138.289 112.72C138.997 112.312 139.783 112.108 140.647 112.108C141.535 112.108 142.327 112.312 143.023 112.72C143.731 113.116 144.289 113.656 144.697 114.34C145.105 115.012 145.309 115.774 145.309 116.626C145.309 117.478 145.105 118.252 144.697 118.948C144.289 119.632 143.731 120.178 143.023 120.586C142.327 120.982 141.541 121.18 140.665 121.18ZM140.647 118.984C141.091 118.984 141.481 118.888 141.817 118.696C142.165 118.492 142.429 118.216 142.609 117.868C142.801 117.508 142.897 117.1 142.897 116.644C142.897 116.188 142.801 115.786 142.609 115.438C142.417 115.09 142.153 114.82 141.817 114.628C141.481 114.424 141.091 114.322 140.647 114.322C140.215 114.322 139.831 114.424 139.495 114.628C139.159 114.82 138.895 115.09 138.703 115.438C138.511 115.786 138.415 116.188 138.415 116.644C138.415 117.1 138.511 117.508 138.703 117.868C138.895 118.216 139.159 118.492 139.495 118.696C139.831 118.888 140.215 118.984 140.647 118.984ZM146.827 121V112.306H149.185V121H146.827ZM149.185 116.194L148.267 115.582C148.375 114.514 148.687 113.674 149.203 113.062C149.719 112.438 150.463 112.126 151.435 112.126C151.855 112.126 152.233 112.198 152.569 112.342C152.905 112.474 153.211 112.696 153.487 113.008L152.011 114.7C151.879 114.556 151.717 114.448 151.525 114.376C151.345 114.304 151.135 114.268 150.895 114.268C150.391 114.268 149.977 114.43 149.653 114.754C149.341 115.066 149.185 115.546 149.185 116.194ZM159.859 121L156.493 116.518L159.841 112.306H162.559L158.635 117.058L158.725 115.906L162.739 121H159.859ZM154.315 121V107.986H156.673V121H154.315Z" fill="white"/>
</g>
<circle cx="88.0003" cy="87.9999" r="4.68" fill="url(#paint0_radial_2464_639)"/>
<g filter="url(#filter0_f_2464_639)">
<circle cx="88.0003" cy="87.9999" r="4.68" fill="url(#paint1_radial_2464_639)"/>
</g>
<g filter="url(#filter1_f_2464_639)">
<circle cx="88.0003" cy="87.9999" r="4.68" fill="url(#paint2_radial_2464_639)"/>
</g>
<g filter="url(#filter2_f_2464_639)">
<circle cx="88.0003" cy="87.9999" r="4.68" fill="url(#paint3_radial_2464_639)"/>
</g>
<g filter="url(#filter3_f_2464_639)">
<circle cx="88" cy="88" r="13" fill="url(#paint4_radial_2464_639)"/>
</g>
<defs>
<filter id="filter0_f_2464_639" x="79.3203" y="79.3199" width="17.3594" height="17.36" filterUnits="userSpaceOnUse" color-interpolation-filters="sRGB">
<feFlood flood-opacity="0" result="BackgroundImageFix"/>
<feBlend mode="normal" in="SourceGraphic" in2="BackgroundImageFix" result="shape"/>
<feGaussianBlur stdDeviation="2" result="effect1_foregroundBlur_2464_639"/>
</filter>
<filter id="filter1_f_2464_639" x="73.3203" y="73.3199" width="29.3594" height="29.36" filterUnits="userSpaceOnUse" color-interpolation-filters="sRGB">
<feFlood flood-opacity="0" result="BackgroundImageFix"/>
<feBlend mode="normal" in="SourceGraphic" in2="BackgroundImageFix" result="shape"/>
<feGaussianBlur stdDeviation="5" result="effect1_foregroundBlur_2464_639"/>
</filter>
<filter id="filter2_f_2464_639" x="58.3203" y="58.3199" width="59.3594" height="59.36" filterUnits="userSpaceOnUse" color-interpolation-filters="sRGB">
<feFlood flood-opacity="0" result="BackgroundImageFix"/>
<feBlend mode="normal" in="SourceGraphic" in2="BackgroundImageFix" result="shape"/>
<feGaussianBlur stdDeviation="12.5" result="effect1_foregroundBlur_2464_639"/>
</filter>
<filter id="filter3_f_2464_639" x="0" y="0" width="176" height="176" filterUnits="userSpaceOnUse" color-interpolation-filters="sRGB">
<feFlood flood-opacity="0" result="BackgroundImageFix"/>
<feBlend mode="normal" in="SourceGraphic" in2="BackgroundImageFix" result="shape"/>
<feGaussianBlur stdDeviation="37.5" result="effect1_foregroundBlur_2464_639"/>
</filter>
<radialGradient id="paint0_radial_2464_639" cx="0" cy="0" r="1" gradientUnits="userSpaceOnUse" gradientTransform="translate(88.0003 87.9999) rotate(90) scale(4.68)">
<stop offset="1" stop-color="#00FF66"/>
<stop stop-color="#F2FFF7"/>
</radialGradient>
<radialGradient id="paint1_radial_2464_639" cx="0" cy="0" r="1" gradientUnits="userSpaceOnUse" gradientTransform="translate(88.0003 87.9999) rotate(90) scale(4.68)">
<stop offset="1" stop-color="#00FF66"/>
<stop stop-color="#F2FFF7"/>
</radialGradient>
<radialGradient id="paint2_radial_2464_639" cx="0" cy="0" r="1" gradientUnits="userSpaceOnUse" gradientTransform="translate(88.0003 87.9999) rotate(90) scale(4.68)">
<stop offset="1" stop-color="#00FF66"/>
<stop stop-color="#F2FFF7"/>
</radialGradient>
<radialGradient id="paint3_radial_2464_639" cx="0" cy="0" r="1" gradientUnits="userSpaceOnUse" gradientTransform="translate(88.0003 87.9999) rotate(90) scale(4.68)">
<stop offset="1" stop-color="#00FF66"/>
<stop stop-color="#F2FFF7"/>
</radialGradient>
<radialGradient id="paint4_radial_2464_639" cx="0" cy="0" r="1" gradientUnits="userSpaceOnUse" gradientTransform="translate(88 88) rotate(90) scale(13)">
<stop offset="1" stop-color="#00FF66"/>
<stop stop-color="#F2FFF7"/>
</radialGradient>
</defs>
</svg>
