<svg width="272" height="149" viewBox="0 0 272 149" fill="none" xmlns="http://www.w3.org/2000/svg">
<g style="mix-blend-mode:screen">
<path d="M106.4 67L112.06 52.94H114.28L119.92 67H117.02L112.66 55.46H113.66L109.24 67H106.4ZM109.4 64.38V62.1H116.96V64.38H109.4ZM123.249 67L118.989 57.34H121.869L124.929 65.3H123.509L126.589 57.34H129.369L125.129 67H123.249ZM134.345 67.2C133.465 67.2 132.671 66.98 131.965 66.54C131.258 66.1 130.705 65.5 130.305 64.74C129.905 63.98 129.705 63.1267 129.705 62.18C129.705 61.22 129.905 60.36 130.305 59.6C130.705 58.84 131.258 58.24 131.965 57.8C132.671 57.36 133.465 57.14 134.345 57.14C135.038 57.14 135.658 57.28 136.205 57.56C136.751 57.84 137.185 58.2333 137.505 58.74C137.838 59.2333 138.018 59.7933 138.045 60.42V63.9C138.018 64.54 137.838 65.1067 137.505 65.6C137.185 66.0933 136.751 66.4867 136.205 66.78C135.658 67.06 135.038 67.2 134.345 67.2ZM134.825 64.78C135.558 64.78 136.151 64.54 136.605 64.06C137.058 63.5667 137.285 62.9333 137.285 62.16C137.285 61.6533 137.178 61.2067 136.965 60.82C136.765 60.42 136.478 60.1133 136.105 59.9C135.745 59.6733 135.318 59.56 134.825 59.56C134.345 59.56 133.918 59.6733 133.545 59.9C133.185 60.1133 132.898 60.42 132.685 60.82C132.485 61.2067 132.385 61.6533 132.385 62.16C132.385 62.68 132.485 63.14 132.685 63.54C132.898 63.9267 133.185 64.2333 133.545 64.46C133.918 64.6733 134.345 64.78 134.825 64.78ZM137.145 67V64.4L137.565 62.04L137.145 59.72V57.34H139.745V67H137.145ZM142.062 67V57.34H144.702V67H142.062ZM143.382 55.78C142.956 55.78 142.602 55.64 142.322 55.36C142.042 55.0667 141.902 54.7067 141.902 54.28C141.902 53.8667 142.042 53.5133 142.322 53.22C142.602 52.9267 142.956 52.78 143.382 52.78C143.822 52.78 144.176 52.9267 144.442 53.22C144.722 53.5133 144.862 53.8667 144.862 54.28C144.862 54.7067 144.722 55.0667 144.442 55.36C144.176 55.64 143.822 55.78 143.382 55.78ZM147.023 67V52.54H149.643V67H147.023ZM156.005 67.2C155.125 67.2 154.331 66.98 153.625 66.54C152.918 66.1 152.365 65.5 151.965 64.74C151.565 63.98 151.365 63.1267 151.365 62.18C151.365 61.22 151.565 60.36 151.965 59.6C152.365 58.84 152.918 58.24 153.625 57.8C154.331 57.36 155.125 57.14 156.005 57.14C156.698 57.14 157.318 57.28 157.865 57.56C158.411 57.84 158.845 58.2333 159.165 58.74C159.498 59.2333 159.678 59.7933 159.705 60.42V63.9C159.678 64.54 159.498 65.1067 159.165 65.6C158.845 66.0933 158.411 66.4867 157.865 66.78C157.318 67.06 156.698 67.2 156.005 67.2ZM156.485 64.78C157.218 64.78 157.811 64.54 158.265 64.06C158.718 63.5667 158.945 62.9333 158.945 62.16C158.945 61.6533 158.838 61.2067 158.625 60.82C158.425 60.42 158.138 60.1133 157.765 59.9C157.405 59.6733 156.978 59.56 156.485 59.56C156.005 59.56 155.578 59.6733 155.205 59.9C154.845 60.1133 154.558 60.42 154.345 60.82C154.145 61.2067 154.045 61.6533 154.045 62.16C154.045 62.68 154.145 63.14 154.345 63.54C154.558 63.9267 154.845 64.2333 155.205 64.46C155.578 64.6733 156.005 64.78 156.485 64.78ZM158.805 67V64.4L159.225 62.04L158.805 59.72V57.34H161.405V67H158.805ZM169.083 67.2C168.389 67.2 167.763 67.0533 167.203 66.76C166.643 66.4667 166.196 66.0667 165.863 65.56C165.529 65.0533 165.349 64.4867 165.323 63.86V60.42C165.349 59.7933 165.529 59.2333 165.863 58.74C166.209 58.2333 166.663 57.84 167.223 57.56C167.783 57.28 168.403 57.14 169.083 57.14C169.976 57.14 170.776 57.36 171.483 57.8C172.189 58.24 172.743 58.84 173.143 59.6C173.556 60.36 173.763 61.22 173.763 62.18C173.763 63.1267 173.556 63.98 173.143 64.74C172.743 65.5 172.189 66.1 171.483 66.54C170.776 66.98 169.976 67.2 169.083 67.2ZM168.643 64.78C169.123 64.78 169.543 64.6733 169.903 64.46C170.276 64.2333 170.563 63.9267 170.763 63.54C170.976 63.14 171.083 62.68 171.083 62.16C171.083 61.6533 170.976 61.2067 170.763 60.82C170.563 60.42 170.276 60.1133 169.903 59.9C169.529 59.6733 169.103 59.56 168.623 59.56C168.143 59.56 167.716 59.6733 167.343 59.9C166.983 60.1133 166.696 60.42 166.483 60.82C166.283 61.2067 166.183 61.6533 166.183 62.16C166.183 62.68 166.283 63.14 166.483 63.54C166.696 63.9267 166.989 64.2333 167.363 64.46C167.736 64.6733 168.163 64.78 168.643 64.78ZM163.723 67V52.54H166.343V59.72L165.903 62.04L166.323 64.4V67H163.723ZM175.48 67V52.54H178.1V67H175.48ZM185.042 67.2C184.028 67.2 183.128 66.9867 182.342 66.56C181.555 66.12 180.928 65.52 180.462 64.76C180.008 64 179.782 63.1333 179.782 62.16C179.782 61.2 180.002 60.3467 180.442 59.6C180.895 58.84 181.508 58.24 182.282 57.8C183.055 57.3467 183.915 57.12 184.862 57.12C185.795 57.12 186.615 57.3333 187.322 57.76C188.042 58.1733 188.602 58.7467 189.002 59.48C189.415 60.2 189.622 61.02 189.622 61.94C189.622 62.1133 189.608 62.2933 189.582 62.48C189.568 62.6533 189.535 62.8533 189.482 63.08L181.362 63.1V61.14L188.262 61.12L187.202 61.94C187.175 61.3667 187.068 60.8867 186.882 60.5C186.708 60.1133 186.448 59.82 186.102 59.62C185.768 59.4067 185.355 59.3 184.862 59.3C184.342 59.3 183.888 59.42 183.502 59.66C183.115 59.8867 182.815 60.2133 182.602 60.64C182.402 61.0533 182.302 61.5467 182.302 62.12C182.302 62.7067 182.408 63.22 182.622 63.66C182.848 64.0867 183.168 64.42 183.582 64.66C183.995 64.8867 184.475 65 185.022 65C185.515 65 185.962 64.92 186.362 64.76C186.762 64.5867 187.108 64.3333 187.402 64L188.942 65.54C188.475 66.0867 187.902 66.5 187.222 66.78C186.555 67.06 185.828 67.2 185.042 67.2ZM196.428 67V56.3C196.428 55.5267 196.595 54.8467 196.928 54.26C197.262 53.66 197.735 53.1867 198.348 52.84C198.962 52.4933 199.682 52.32 200.508 52.32C201.135 52.32 201.675 52.4267 202.128 52.64C202.582 52.8533 202.988 53.1467 203.348 53.52L201.688 55.2C201.542 55.0533 201.382 54.94 201.208 54.86C201.035 54.78 200.815 54.74 200.548 54.74C200.068 54.74 199.695 54.8733 199.428 55.14C199.175 55.3933 199.048 55.76 199.048 56.24V67H196.428ZM194.188 59.64V57.34H201.908V59.64H194.188ZM207.618 67.2C206.645 67.2 205.765 66.98 204.978 66.54C204.205 66.0867 203.585 65.48 203.118 64.72C202.665 63.9467 202.438 63.0867 202.438 62.14C202.438 61.1933 202.665 60.3467 203.118 59.6C203.571 58.84 204.191 58.24 204.978 57.8C205.765 57.3467 206.638 57.12 207.598 57.12C208.585 57.12 209.465 57.3467 210.238 57.8C211.025 58.24 211.645 58.84 212.098 59.6C212.551 60.3467 212.778 61.1933 212.778 62.14C212.778 63.0867 212.551 63.9467 212.098 64.72C211.645 65.48 211.025 66.0867 210.238 66.54C209.465 66.98 208.591 67.2 207.618 67.2ZM207.598 64.76C208.091 64.76 208.525 64.6533 208.898 64.44C209.285 64.2133 209.578 63.9067 209.778 63.52C209.991 63.12 210.098 62.6667 210.098 62.16C210.098 61.6533 209.991 61.2067 209.778 60.82C209.565 60.4333 209.271 60.1333 208.898 59.92C208.525 59.6933 208.091 59.58 207.598 59.58C207.118 59.58 206.691 59.6933 206.318 59.92C205.945 60.1333 205.651 60.4333 205.438 60.82C205.225 61.2067 205.118 61.6533 205.118 62.16C205.118 62.6667 205.225 63.12 205.438 63.52C205.651 63.9067 205.945 64.2133 206.318 64.44C206.691 64.6533 207.118 64.76 207.598 64.76ZM214.465 67V57.34H217.085V67H214.465ZM217.085 61.66L216.065 60.98C216.185 59.7933 216.531 58.86 217.105 58.18C217.678 57.4867 218.505 57.14 219.585 57.14C220.051 57.14 220.471 57.22 220.845 57.38C221.218 57.5267 221.558 57.7733 221.865 58.12L220.225 60C220.078 59.84 219.898 59.72 219.685 59.64C219.485 59.56 219.251 59.52 218.985 59.52C218.425 59.52 217.965 59.7 217.605 60.06C217.258 60.4067 217.085 60.94 217.085 61.66ZM229.623 67L226.003 57.34H228.643L231.003 64.36L230.203 64.38L232.623 57.34H234.523L236.943 64.38L236.143 64.36L238.503 57.34H241.143L237.543 67H235.643L233.203 60.32H233.943L231.503 67H229.623ZM246.739 67.2C245.766 67.2 244.886 66.98 244.099 66.54C243.326 66.0867 242.706 65.48 242.239 64.72C241.786 63.9467 241.559 63.0867 241.559 62.14C241.559 61.1933 241.786 60.3467 242.239 59.6C242.692 58.84 243.312 58.24 244.099 57.8C244.886 57.3467 245.759 57.12 246.719 57.12C247.706 57.12 248.586 57.3467 249.359 57.8C250.146 58.24 250.766 58.84 251.219 59.6C251.672 60.3467 251.899 61.1933 251.899 62.14C251.899 63.0867 251.672 63.9467 251.219 64.72C250.766 65.48 250.146 66.0867 249.359 66.54C248.586 66.98 247.712 67.2 246.739 67.2ZM246.719 64.76C247.212 64.76 247.646 64.6533 248.019 64.44C248.406 64.2133 248.699 63.9067 248.899 63.52C249.112 63.12 249.219 62.6667 249.219 62.16C249.219 61.6533 249.112 61.2067 248.899 60.82C248.686 60.4333 248.392 60.1333 248.019 59.92C247.646 59.6933 247.212 59.58 246.719 59.58C246.239 59.58 245.812 59.6933 245.439 59.92C245.066 60.1333 244.772 60.4333 244.559 60.82C244.346 61.2067 244.239 61.6533 244.239 62.16C244.239 62.6667 244.346 63.12 244.559 63.52C244.772 63.9067 245.066 64.2133 245.439 64.44C245.812 64.6533 246.239 64.76 246.719 64.76ZM253.586 67V57.34H256.206V67H253.586ZM256.206 61.66L255.186 60.98C255.306 59.7933 255.652 58.86 256.226 58.18C256.799 57.4867 257.626 57.14 258.706 57.14C259.172 57.14 259.592 57.22 259.966 57.38C260.339 57.5267 260.679 57.7733 260.986 58.12L259.346 60C259.199 59.84 259.019 59.72 258.806 59.64C258.606 59.56 258.372 59.52 258.106 59.52C257.546 59.52 257.086 59.7 256.726 60.06C256.379 60.4067 256.206 60.94 256.206 61.66ZM268.066 67L264.326 62.02L268.046 57.34H271.066L266.706 62.62L266.806 61.34L271.266 67H268.066ZM261.906 67V52.54H264.526V67H261.906Z" fill="white"/>
</g>
<circle cx="89.5" cy="59.5" r="5.5" fill="url(#paint0_radial_2361_492)"/>
<g filter="url(#filter0_f_2361_492)">
<circle cx="89.5" cy="59.5" r="5.5" fill="url(#paint1_radial_2361_492)"/>
</g>
<g filter="url(#filter1_f_2361_492)">
<circle cx="89.5" cy="59.5" r="5.5" fill="url(#paint2_radial_2361_492)"/>
</g>
<g filter="url(#filter2_f_2361_492)">
<circle cx="89.5" cy="59.5" r="5.5" fill="url(#paint3_radial_2361_492)"/>
</g>
<g filter="url(#filter3_f_2361_492)">
<circle cx="89.5" cy="59.5" r="14.5" fill="url(#paint4_radial_2361_492)"/>
</g>
<defs>
<filter id="filter0_f_2361_492" x="80" y="50" width="19" height="19" filterUnits="userSpaceOnUse" color-interpolation-filters="sRGB">
<feFlood flood-opacity="0" result="BackgroundImageFix"/>
<feBlend mode="normal" in="SourceGraphic" in2="BackgroundImageFix" result="shape"/>
<feGaussianBlur stdDeviation="2" result="effect1_foregroundBlur_2361_492"/>
</filter>
<filter id="filter1_f_2361_492" x="74" y="44" width="31" height="31" filterUnits="userSpaceOnUse" color-interpolation-filters="sRGB">
<feFlood flood-opacity="0" result="BackgroundImageFix"/>
<feBlend mode="normal" in="SourceGraphic" in2="BackgroundImageFix" result="shape"/>
<feGaussianBlur stdDeviation="5" result="effect1_foregroundBlur_2361_492"/>
</filter>
<filter id="filter2_f_2361_492" x="59" y="29" width="61" height="61" filterUnits="userSpaceOnUse" color-interpolation-filters="sRGB">
<feFlood flood-opacity="0" result="BackgroundImageFix"/>
<feBlend mode="normal" in="SourceGraphic" in2="BackgroundImageFix" result="shape"/>
<feGaussianBlur stdDeviation="12.5" result="effect1_foregroundBlur_2361_492"/>
</filter>
<filter id="filter3_f_2361_492" x="0" y="-30" width="179" height="179" filterUnits="userSpaceOnUse" color-interpolation-filters="sRGB">
<feFlood flood-opacity="0" result="BackgroundImageFix"/>
<feBlend mode="normal" in="SourceGraphic" in2="BackgroundImageFix" result="shape"/>
<feGaussianBlur stdDeviation="37.5" result="effect1_foregroundBlur_2361_492"/>
</filter>
<radialGradient id="paint0_radial_2361_492" cx="0" cy="0" r="1" gradientUnits="userSpaceOnUse" gradientTransform="translate(89.5 59.5) rotate(90) scale(5.5)">
<stop offset="1" stop-color="#00FF66"/>
<stop stop-color="#F2FFF7"/>
</radialGradient>
<radialGradient id="paint1_radial_2361_492" cx="0" cy="0" r="1" gradientUnits="userSpaceOnUse" gradientTransform="translate(89.5 59.5) rotate(90) scale(5.5)">
<stop offset="1" stop-color="#00FF66"/>
<stop stop-color="#F2FFF7"/>
</radialGradient>
<radialGradient id="paint2_radial_2361_492" cx="0" cy="0" r="1" gradientUnits="userSpaceOnUse" gradientTransform="translate(89.5 59.5) rotate(90) scale(5.5)">
<stop offset="1" stop-color="#00FF66"/>
<stop stop-color="#F2FFF7"/>
</radialGradient>
<radialGradient id="paint3_radial_2361_492" cx="0" cy="0" r="1" gradientUnits="userSpaceOnUse" gradientTransform="translate(89.5 59.5) rotate(90) scale(5.5)">
<stop offset="1" stop-color="#00FF66"/>
<stop stop-color="#F2FFF7"/>
</radialGradient>
<radialGradient id="paint4_radial_2361_492" cx="0" cy="0" r="1" gradientUnits="userSpaceOnUse" gradientTransform="translate(89.5 59.5) rotate(90) scale(14.5)">
<stop offset="1" stop-color="#00FF66"/>
<stop stop-color="#F2FFF7"/>
</radialGradient>
</defs>
</svg>
