<svg width="65" height="65" viewBox="0 0 65 65" fill="none" xmlns="http://www.w3.org/2000/svg">
<g clip-path="url(#clip0_2661_31)">
<path d="M41.9779 29.7917C38.2458 29.7917 35.207 26.7529 35.207 23.0208C35.207 19.2888 38.2458 16.25 41.9779 16.25C45.7099 16.25 48.7487 19.2888 48.7487 23.0208C48.7487 26.7529 45.7099 29.7917 41.9779 29.7917ZM41.9779 18.9583C39.7381 18.9583 37.9154 20.781 37.9154 23.0208C37.9154 25.2606 39.7381 27.0833 41.9779 27.0833C44.2177 27.0833 46.0404 25.2606 46.0404 23.0208C46.0404 20.781 44.2177 18.9583 41.9779 18.9583Z" fill="white"/>
<path d="M6.7732 59.5832C6.42112 59.5832 6.07445 59.4451 5.81445 59.1878C5.44341 58.8167 5.31883 58.2615 5.50029 57.7686C9.66841 46.3096 14.0505 40.4976 18.522 40.4976C19.998 40.4976 21.3765 41.1313 22.6251 42.3771C24.5967 44.3488 24.6672 46.3123 24.3801 47.6123C23.4755 51.6965 17.7067 55.6967 7.23633 59.5046C7.08466 59.5588 6.92758 59.5832 6.7732 59.5832ZM18.5247 43.2032C17.184 43.2032 15.6051 44.3786 13.9611 46.6021C12.3442 48.7878 10.7192 51.9024 9.11862 55.8836C12.7342 54.4292 15.6403 52.9532 17.7826 51.4826C20.6724 49.4974 21.5282 47.9617 21.7367 47.0246C21.9453 46.0876 21.6095 45.1911 20.7103 44.2919C19.979 43.5607 19.264 43.2059 18.522 43.2059L18.5247 43.2032Z" fill="white"/>
<path d="M58.2279 5.41677C51.1998 5.41677 44.9381 6.60844 39.6109 8.95927C35.2206 10.8984 31.4615 13.6176 28.4363 17.0464C27.8729 17.6855 27.3502 18.3328 26.8654 18.9828C24.5309 19.1372 22.1421 20.0661 19.7588 21.7453C17.7411 23.1645 15.7152 25.1307 13.7327 27.5872C10.4015 31.7147 8.35398 35.7853 8.26731 35.9559C7.9721 36.5491 8.14815 37.2695 8.6844 37.6568C8.92273 37.8301 9.20169 37.9141 9.47794 37.9141C9.8246 37.9141 10.1713 37.7814 10.434 37.5214C10.4475 37.5078 11.7421 36.2349 13.9494 34.9864C15.7694 33.9572 18.5752 32.7466 21.9688 32.5326C22.8273 34.7291 25.2838 37.3561 26.4619 38.5343C27.64 39.7124 30.2671 42.1689 32.4636 43.0274C32.2496 46.4209 31.039 49.2268 30.0098 51.0468C28.7586 53.2568 27.4884 54.5486 27.4775 54.5595C27.009 55.028 26.9494 55.7701 27.3367 56.3091C27.5994 56.672 28.0111 56.8724 28.4363 56.8724C28.6421 56.8724 28.8479 56.8263 29.0402 56.7288C29.2109 56.6422 33.2815 54.5947 37.409 51.2634C39.8654 49.2809 41.8317 47.2551 43.2509 45.2374C44.93 42.8514 45.8563 40.4653 46.0134 38.1307C46.6606 37.6486 47.3079 37.1259 47.9498 36.5599C51.3786 33.5347 54.0977 29.7755 56.0369 25.3853C58.3877 20.0607 59.5794 13.7964 59.5794 6.76823V5.41406L58.2279 5.41677ZM13.8302 31.9801C16.4113 28.2345 20.3573 23.5897 24.8044 22.1299C23.0467 25.2093 22.1367 28.0368 21.809 29.8297C18.67 30.022 15.9644 30.9347 13.8302 31.9801ZM33.0215 51.1605C34.0669 49.0263 34.9796 46.3234 35.1692 43.1872C36.9594 42.8595 39.7896 41.9495 42.8663 40.1945C41.4038 44.6334 36.7644 48.5795 33.0215 51.1605ZM46.1596 34.5314C40.5263 39.5011 34.6925 40.6251 33.8529 40.6251C33.8475 40.6251 33.2923 40.6143 31.7973 39.5607C30.7546 38.8268 29.5386 37.7814 28.3794 36.6222C27.2202 35.463 26.1748 34.247 25.4409 33.2043C24.3873 31.7093 24.3765 31.1541 24.3765 31.1486C24.3765 30.3091 25.5004 24.4753 30.4702 18.842C36.4177 12.1036 45.5204 8.4176 56.8602 8.14406C56.5867 19.4839 52.9034 28.5866 46.1623 34.5341L46.1596 34.5314Z" fill="white"/>
</g>
<defs>
<clipPath id="clip0_2661_31">
<rect width="65" height="65" fill="white"/>
</clipPath>
</defs>
</svg>
