<svg width="20" height="20" viewBox="0 0 20 20" fill="none" xmlns="http://www.w3.org/2000/svg">
<g clip-path="url(#clip0_2661_135)">
<path d="M4.65402 6.43408H0.638987C0.460793 6.43408 0.316406 6.57853 0.316406 6.75666V19.6552C0.316406 19.8334 0.460793 19.9778 0.638987 19.9778H4.65402C4.83221 19.9778 4.9766 19.8334 4.9766 19.6552V6.75666C4.9766 6.57853 4.83221 6.43408 4.65402 6.43408Z" fill="white"/>
<path d="M2.64942 0.0219727C1.18852 0.0219727 0 1.2092 0 2.66849C0 4.12842 1.18852 5.3161 2.64942 5.3161C4.10916 5.3161 5.29671 4.12836 5.29671 2.66849C5.29677 1.2092 4.10916 0.0219727 2.64942 0.0219727Z" fill="white"/>
<path d="M14.8695 6.11377C13.2569 6.11377 12.0649 6.80699 11.3418 7.59467V6.75693C11.3418 6.5788 11.1974 6.43435 11.0192 6.43435H7.17414C6.99595 6.43435 6.85156 6.5788 6.85156 6.75693V19.6555C6.85156 19.8337 6.99595 19.9781 7.17414 19.9781H11.1804C11.3586 19.9781 11.503 19.8337 11.503 19.6555V13.2737C11.503 11.1232 12.0871 10.2854 13.5862 10.2854C15.2189 10.2854 15.3486 11.6285 15.3486 13.3843V19.6556C15.3486 19.8338 15.493 19.9782 15.6712 19.9782H19.6789C19.8571 19.9782 20.0015 19.8338 20.0015 19.6556V12.5805C20.0015 9.38274 19.3918 6.11377 14.8695 6.11377Z" fill="white"/>
</g>
<defs>
<clipPath id="clip0_2661_135">
<rect width="20" height="20" fill="white"/>
</clipPath>
</defs>
</svg>
