<svg width="39" height="51" viewBox="0 0 39 51" fill="none" xmlns="http://www.w3.org/2000/svg">
    <path d="M37.5 31.0417C37.5 36.7864 35.4622 41.2272 32.261 44.2378C29.046 47.2613 24.5548 48.9376 19.5 48.9376C14.4452 48.9376 9.95398 47.2613 6.73904 44.2378C3.53784 41.2272 1.5 36.7864 1.5 31.0417C1.5 25.1661 3.10262 19.2455 6.16613 14.8383C9.20249 10.47 13.6473 7.60425 19.5 7.60425C25.3527 7.60425 29.7975 10.47 32.8339 14.8383C35.8974 19.2455 37.5 25.1661 37.5 31.0417Z" stroke="white" stroke-width="3"/>
    <rect x="10.0625" y="19.6873" width="18.878" height="15.4722" rx="3.5" stroke="white" stroke-width="3"/>
    <path d="M22.2836 4.71875C22.2836 6.14441 21.0807 7.375 19.5031 7.375C17.9256 7.375 16.7227 6.14441 16.7227 4.71875C16.7227 3.29308 17.9256 2.0625 19.5031 2.0625C21.0807 2.0625 22.2836 3.29308 22.2836 4.71875Z" stroke="white" stroke-width="3"/>
    <ellipse cx="19.501" cy="41.5868" rx="1.42683" ry="1.38542" fill="white"/>
</svg>
