<svg width="79" height="43" viewBox="0 0 79 43" fill="none" xmlns="http://www.w3.org/2000/svg">
    <path d="M39.4981 1.5C35.2163 1.50001 35.1623 1.50027 32.0091 1.50027C13.8789 1.50029 1.06606 6.69521 2.05346 23.4797C2.8763 37.4669 12.4504 41.9621 19.3976 41.4631C25.2432 41.0433 28.7265 37.3997 32.4044 35.069C35.5576 33.0709 36.3459 32.2716 39.4981 32.2716" stroke="white" stroke-width="3" stroke-linecap="round" stroke-linejoin="round"/>
    <path d="M39.5019 1.5C43.7837 1.50001 43.8377 1.50027 46.9909 1.50027C65.1211 1.50029 77.9339 6.69521 76.9465 23.4797C76.1237 37.4669 66.5496 41.9621 59.6024 41.4631C53.7568 41.0433 50.2735 37.3997 46.5956 35.069C43.4424 33.0709 42.6541 32.2716 39.5019 32.2716" stroke="white" stroke-width="3" stroke-linecap="round" stroke-linejoin="round"/>
</svg>
