<svg width="30" height="30" viewBox="0 0 30 30" fill="none" xmlns="http://www.w3.org/2000/svg">
<path d="M28.2 15.3125C28.2 14.3375 28.1125 13.4 27.95 12.5H15V17.825H22.4C22.075 19.5375 21.1 20.9875 19.6375 21.9625V25.425H24.1C26.7 23.025 28.2 19.5 28.2 15.3125Z" fill="#4285F4"/>
<path d="M15.0001 28.75C18.7126 28.75 21.8251 27.525 24.1001 25.425L19.6376 21.9625C18.4126 22.7875 16.8501 23.2875 15.0001 23.2875C11.4251 23.2875 8.3876 20.875 7.3001 17.625H2.7251V21.175C4.9876 25.6625 9.6251 28.75 15.0001 28.75Z" fill="#34A853"/>
<path d="M7.3 17.6124C7.025 16.7874 6.8625 15.9124 6.8625 14.9999C6.8625 14.0874 7.025 13.2124 7.3 12.3874V8.8374H2.725C1.7875 10.6874 1.25 12.7749 1.25 14.9999C1.25 17.2249 1.7875 19.3124 2.725 21.1624L6.2875 18.3874L7.3 17.6124Z" fill="#FBBC05"/>
<path d="M15.0001 6.725C17.0251 6.725 18.8251 7.425 20.2626 8.775L24.2001 4.8375C21.8126 2.6125 18.7126 1.25 15.0001 1.25C9.6251 1.25 4.9876 4.3375 2.7251 8.8375L7.3001 12.3875C8.3876 9.1375 11.4251 6.725 15.0001 6.725Z" fill="#EA4335"/>
</svg>
