<svg width="87" height="88" viewBox="0 0 87 88" fill="none" xmlns="http://www.w3.org/2000/svg">
<g opacity="0.75" filter="url(#filter0_f_2429_521)">
<path d="M61.6 44.4165C61.6 43.1165 61.4833 41.8665 61.2667 40.6665H44V47.7665H53.8667C53.4333 50.0498 52.1333 51.9832 50.1833 53.2832V57.8998H56.1333C59.6 54.6998 61.6 49.9998 61.6 44.4165Z" fill="#4285F4"/>
<path d="M43.9995 62.3333C48.9495 62.3333 53.0995 60.7 56.1328 57.9L50.1828 53.2833C48.5495 54.3833 46.4661 55.05 43.9995 55.05C39.2328 55.05 35.1828 51.8333 33.7328 47.5H27.6328V52.2333C30.6495 58.2167 36.8328 62.3333 43.9995 62.3333Z" fill="#34A853"/>
<path d="M33.7346 47.4832C33.368 46.3832 33.1513 45.2165 33.1513 43.9999C33.1513 42.7832 33.368 41.6165 33.7346 40.5165V35.7832H27.6346C26.3846 38.2499 25.668 41.0332 25.668 43.9999C25.668 46.9665 26.3846 49.7499 27.6346 52.2165L32.3846 48.5165L33.7346 47.4832Z" fill="#FBBC05"/>
<path d="M43.9995 32.9665C46.6995 32.9665 49.0995 33.8998 51.0161 35.6998L56.2661 30.4498C53.0828 27.4832 48.9495 25.6665 43.9995 25.6665C36.8328 25.6665 30.6495 29.7832 27.6328 35.7832L33.7328 40.5165C35.1828 36.1832 39.2328 32.9665 43.9995 32.9665Z" fill="#EA4335"/>
</g>
<defs>
<filter id="filter0_f_2429_521" x="-1" y="-1" width="90" height="90" filterUnits="userSpaceOnUse" color-interpolation-filters="sRGB">
<feFlood flood-opacity="0" result="BackgroundImageFix"/>
<feBlend mode="normal" in="SourceGraphic" in2="BackgroundImageFix" result="shape"/>
<feGaussianBlur stdDeviation="12.5" result="effect1_foregroundBlur_2429_521"/>
</filter>
</defs>
</svg>
