<svg width="110" height="22" viewBox="0 0 110 22" fill="none" xmlns="http://www.w3.org/2000/svg">
<path d="M10.1032 3.64988C10.47 2.90671 11.5298 2.90671 11.8966 3.64988L13.6 7.10068C13.7455 7.39552 14.0267 7.59998 14.3521 7.64754L18.1628 8.20454C18.9827 8.32438 19.3095 9.33222 18.7159 9.91038L15.96 12.5946C15.7242 12.8243 15.6165 13.1555 15.6722 13.48L16.3223 17.2709C16.4625 18.0878 15.6049 18.7108 14.8713 18.325L11.4654 16.5339C11.174 16.3806 10.8259 16.3806 10.5345 16.5339L7.12855 18.325C6.39492 18.7108 5.53737 18.0878 5.67749 17.2709L6.32767 13.48C6.38333 13.1555 6.27567 12.8243 6.0398 12.5946L3.28393 9.91038C2.69034 9.33222 3.01712 8.32438 3.83704 8.20454L7.64779 7.64754C7.97314 7.59998 8.25432 7.39552 8.39986 7.10068L10.1032 3.64988Z" fill="url(#paint0_linear_45_755)"/>
<path d="M32.1032 3.64988C32.47 2.90671 33.5298 2.90671 33.8966 3.64988L35.6 7.10068C35.7455 7.39552 36.0267 7.59998 36.3521 7.64754L40.1628 8.20454C40.9827 8.32438 41.3095 9.33222 40.7159 9.91038L37.96 12.5946C37.7242 12.8243 37.6165 13.1555 37.6722 13.48L38.3223 17.2709C38.4625 18.0878 37.6049 18.7108 36.8713 18.325L33.4654 16.5339C33.174 16.3806 32.8259 16.3806 32.5345 16.5339L29.1285 18.325C28.3949 18.7108 27.5374 18.0878 27.6775 17.2709L28.3277 13.48C28.3833 13.1555 28.2757 12.8243 28.0398 12.5946L25.2839 9.91038C24.6903 9.33222 25.0171 8.32438 25.837 8.20454L29.6478 7.64754C29.9731 7.59998 30.2543 7.39552 30.3999 7.10068L32.1032 3.64988Z" fill="url(#paint1_linear_45_755)"/>
<path d="M54.1032 3.64988C54.47 2.90671 55.5298 2.90671 55.8966 3.64988L57.6 7.10068C57.7455 7.39552 58.0267 7.59998 58.3521 7.64754L62.1628 8.20454C62.9827 8.32438 63.3095 9.33222 62.7159 9.91038L59.96 12.5946C59.7242 12.8243 59.6165 13.1555 59.6722 13.48L60.3223 17.2709C60.4625 18.0878 59.6049 18.7108 58.8713 18.325L55.4654 16.5339C55.174 16.3806 54.8259 16.3806 54.5345 16.5339L51.1285 18.325C50.3949 18.7108 49.5374 18.0878 49.6775 17.2709L50.3277 13.48C50.3833 13.1555 50.2757 12.8243 50.0398 12.5946L47.2839 9.91038C46.6903 9.33222 47.0171 8.32438 47.837 8.20454L51.6478 7.64754C51.9731 7.59998 52.2543 7.39552 52.3999 7.10068L54.1032 3.64988Z" fill="url(#paint2_linear_45_755)"/>
<path d="M76.1032 3.64988C76.47 2.90671 77.5298 2.90671 77.8966 3.64988L79.6 7.10068C79.7455 7.39552 80.0267 7.59998 80.3521 7.64754L84.1628 8.20454C84.9827 8.32438 85.3095 9.33222 84.7159 9.91038L81.96 12.5946C81.7242 12.8243 81.6165 13.1555 81.6722 13.48L82.3223 17.2709C82.4625 18.0878 81.6049 18.7108 80.8713 18.325L77.4654 16.5339C77.174 16.3806 76.8259 16.3806 76.5345 16.5339L73.1285 18.325C72.3949 18.7108 71.5374 18.0878 71.6775 17.2709L72.3277 13.48C72.3833 13.1555 72.2757 12.8243 72.0398 12.5946L69.2839 9.91038C68.6903 9.33222 69.0171 8.32438 69.837 8.20454L73.6478 7.64754C73.9731 7.59998 74.2543 7.39552 74.3999 7.10068L76.1032 3.64988Z" fill="url(#paint3_linear_45_755)"/>
<path d="M98.1032 3.64988C98.47 2.90671 99.5298 2.90671 99.8966 3.64988L101.6 7.10068C101.746 7.39552 102.027 7.59998 102.352 7.64754L106.163 8.20454C106.983 8.32438 107.309 9.33222 106.716 9.91038L103.96 12.5946C103.724 12.8243 103.617 13.1555 103.672 13.48L104.322 17.2709C104.462 18.0878 103.605 18.7108 102.871 18.325L99.4654 16.5339C99.174 16.3806 98.8259 16.3806 98.5345 16.5339L95.1285 18.325C94.3949 18.7108 93.5374 18.0878 93.6775 17.2709L94.3277 13.48C94.3833 13.1555 94.2757 12.8243 94.0398 12.5946L91.2839 9.91038C90.6903 9.33222 91.0171 8.32438 91.837 8.20454L95.6478 7.64754C95.9731 7.59998 96.2543 7.39552 96.3999 7.10068L98.1032 3.64988Z" fill="url(#paint4_linear_45_755)"/>
<defs>
<linearGradient id="paint0_linear_45_755" x1="20.1666" y1="1.83325" x2="1.15676" y2="2.60501" gradientUnits="userSpaceOnUse">
<stop stop-color="#D2FFFC"/>
<stop offset="0.675" stop-color="#21DBD0"/>
<stop offset="1" stop-color="#21DBD0"/>
</linearGradient>
<linearGradient id="paint1_linear_45_755" x1="42.1666" y1="1.83325" x2="23.1568" y2="2.60501" gradientUnits="userSpaceOnUse">
<stop stop-color="#D2FFFC"/>
<stop offset="0.675" stop-color="#21DBD0"/>
<stop offset="1" stop-color="#21DBD0"/>
</linearGradient>
<linearGradient id="paint2_linear_45_755" x1="64.1666" y1="1.83325" x2="45.1568" y2="2.60501" gradientUnits="userSpaceOnUse">
<stop stop-color="#D2FFFC"/>
<stop offset="0.675" stop-color="#21DBD0"/>
<stop offset="1" stop-color="#21DBD0"/>
</linearGradient>
<linearGradient id="paint3_linear_45_755" x1="86.1666" y1="1.83325" x2="67.1568" y2="2.60501" gradientUnits="userSpaceOnUse">
<stop stop-color="#D2FFFC"/>
<stop offset="0.675" stop-color="#21DBD0"/>
<stop offset="1" stop-color="#21DBD0"/>
</linearGradient>
<linearGradient id="paint4_linear_45_755" x1="108.167" y1="1.83325" x2="89.1568" y2="2.60501" gradientUnits="userSpaceOnUse">
<stop stop-color="#D2FFFC"/>
<stop offset="0.675" stop-color="#21DBD0"/>
<stop offset="1" stop-color="#21DBD0"/>
</linearGradient>
</defs>
</svg>
