<svg width="152" height="42" viewBox="0 0 152 42" fill="none" xmlns="http://www.w3.org/2000/svg">
<g clip-path="url(#clip0_810_125)">
<path d="M16.7033 21.8308C16.3692 21.8308 16.0351 21.8308 15.6176 21.8308C13.0285 21.8308 9.60437 21.8308 7.34943 21.8308L14.8659 1.86154C15.2835 0.761539 16.3692 0 17.622 0H23.3846C24.3868 0 25.1384 1.01538 24.7209 2.03077L18.1231 20.8154V20.9C17.956 21.2385 17.7055 21.5769 17.2879 21.7462C17.2879 21.7462 17.2044 21.7462 17.2044 21.8308H17.1209C17.1209 21.8308 17.1209 21.8308 17.0373 21.8308C16.9538 21.8308 16.9538 21.8308 16.8703 21.8308H16.7033Z" fill="#136EF8"/>
<path d="M14.7824 21.8312C12.1934 21.8312 8.7692 21.8312 6.51426 21.8312H5.34502C4.76041 21.8312 4.34283 21.4927 4.09228 20.985L4.00876 20.7312L0.0834861 9.30811C-0.334096 8.37734 0.417552 7.27734 1.41975 7.27734H6.93184C8.18459 7.27734 9.2703 8.03888 9.7714 9.2235L14.5318 20.8158C14.7824 21.3235 15.2 21.8312 15.7846 21.8312H14.7824Z" fill="#60D0FF"/>
<path d="M14.5319 20.9003C14.6989 21.408 15.2 21.9157 15.7846 21.9157H14.866C12.2769 21.9157 9.68793 21.9157 7.43298 21.9157L11.0242 12.2695L14.5319 20.9003Z" fill="#2D7FFF"/>
<path d="M15.8681 21.8326H15.7011C15.1165 21.8326 14.6989 21.3249 14.5319 20.8172L11.0242 12.1865L12.611 7.87109L15.033 20.0557C15.033 20.0557 15.1165 21.4942 16.3692 21.8326H16.2857H16.2022C16.1187 21.8326 16.1187 21.8326 16.0352 21.8326H15.8681Z" fill="#0047D8"/>
<path d="M32.989 21.9155C30.3165 21.9155 28.3956 20.1386 28.3956 17.6001C28.3956 15.0617 30.066 13.2001 32.822 12.777L37.7495 11.8463V11.7617C37.5824 10.3232 36.2462 9.64627 34.9934 9.64627C33.0726 9.64627 31.8198 11.0001 31.5693 11.3386L29.2308 8.88474C29.5649 8.46166 31.7363 6.00781 35.3275 6.00781C39.0857 6.00781 41.7583 8.54627 41.7583 12.1001V21.577H37.7495V19.7155H37.4154C37.4154 19.7155 35.9121 21.9155 32.989 21.9155ZM34.2418 15.2309C33.1561 15.4001 32.4879 16.077 32.4879 16.9232C32.4879 17.9386 33.2396 18.6155 34.4088 18.6155C36.3297 18.6155 37.7495 17.0924 37.7495 15.0617V14.6386L34.2418 15.2309Z" fill="white"/>
<path d="M51.1956 21.8296C46.7692 21.8296 43.178 18.2757 43.178 13.8757C43.178 9.47572 46.7692 5.92188 51.1956 5.92188C52.866 5.92188 54.4528 6.42957 55.7055 7.36034L54.0352 10.745C53.4506 10.2373 52.4484 9.72957 51.1956 9.72957C48.9407 9.72957 47.1868 11.5065 47.1868 13.9603C47.1868 16.3296 48.8572 18.1911 51.1956 18.1911C52.4484 18.1911 53.367 17.6834 54.0352 17.1757L55.7055 20.5603C54.4528 21.4065 52.866 21.8296 51.1956 21.8296Z" fill="white"/>
<path d="M64.0571 21.8296C59.6308 21.8296 56.0396 18.2757 56.0396 13.8757C56.0396 9.47572 59.6308 5.92188 64.0571 5.92188C65.7275 5.92188 67.3143 6.42957 68.567 7.36034L66.8967 10.745C66.3121 10.2373 65.3099 9.72957 64.0571 9.72957C61.8022 9.72957 60.0483 11.5065 60.0483 13.9603C60.0483 16.3296 61.7187 18.1911 64.0571 18.1911C65.3099 18.1911 66.3121 17.6834 66.8967 17.1757L68.567 20.5603C67.3143 21.4065 65.7275 21.8296 64.0571 21.8296Z" fill="white"/>
<path d="M77.0857 21.8296C72.6593 21.8296 69.0681 18.2757 69.0681 13.8757C69.0681 11.7603 69.9033 9.81418 71.4066 8.29111C72.9099 6.76803 74.8308 5.92188 76.9187 5.92188C81.0945 5.92188 84.4351 9.30649 84.4351 13.5373C84.4351 14.3834 84.3516 15.145 84.2681 15.3142H73.2439V15.3988C73.8286 17.1757 75.3319 18.1065 77.3362 18.1065C78.756 18.1065 79.8417 17.5988 80.4264 17.1757L83.2659 19.3757C82.8483 20.0526 80.5934 21.8296 77.0857 21.8296ZM76.7516 9.56034C74.8308 9.56034 73.6615 10.9988 73.2439 12.268V12.3526H80.3428V12.268C79.8417 11.0834 78.6725 9.56034 76.7516 9.56034Z" fill="white"/>
<path d="M143.899 21.8296C139.473 21.8296 135.881 18.2757 135.881 13.8757C135.881 11.7603 136.717 9.81418 138.22 8.29111C139.723 6.76803 141.644 5.92188 143.732 5.92188C147.908 5.92188 151.248 9.30649 151.248 13.5373C151.248 14.3834 151.165 15.145 151.081 15.3142H139.974V15.3988C140.558 17.1757 142.062 18.1065 144.066 18.1065C145.486 18.1065 146.571 17.5988 147.156 17.1757L149.996 19.3757C149.578 20.0526 147.407 21.8296 143.899 21.8296ZM143.565 9.56034C141.644 9.56034 140.475 10.9988 140.057 12.268V12.3526H147.156V12.268C146.655 11.0834 145.486 9.56034 143.565 9.56034Z" fill="white"/>
<path d="M112.664 21.8309V6.00781H116.673V21.8309H112.664Z" fill="white"/>
<path d="M119.846 21.8308C119.512 21.8308 119.178 21.5769 119.178 21.1538V0.676923C119.178 0.338462 119.512 0 119.846 0H126.36C128.448 0 130.202 0.592308 131.455 1.69231C132.624 2.70769 133.292 4.14615 133.292 5.75385C133.292 9.13846 130.453 10.2385 130.369 10.2385L130.119 10.3231L130.369 10.4077C130.369 10.4077 134.378 11.5077 134.378 15.6538C134.378 19.2923 131.371 21.8308 127.029 21.8308H119.846ZM123.354 17.9385H126.778C128.615 17.9385 129.785 16.8385 129.785 15.1462C129.785 13.4538 128.615 12.3538 126.778 12.3538H123.354V17.9385ZM123.354 8.54615H126.193C127.697 8.54615 128.782 7.61538 128.782 6.26154C128.782 4.90769 127.78 3.97692 126.193 3.97692H123.354V8.54615Z" fill="white"/>
<path d="M91.7846 21.8309C90.1978 21.8309 88.945 21.4924 87.8593 20.8155C86.8571 20.1386 86.356 19.377 86.022 18.7001L89.3626 17.177C89.7802 18.0232 90.6154 18.5309 91.7846 18.5309C92.8703 18.5309 93.622 18.0232 93.622 17.177C93.622 16.4155 93.1209 15.9078 92.1187 15.7386L90.1978 15.3155C87.5253 14.7232 86.022 13.2001 86.022 10.9155C86.022 8.1232 88.4439 6.00781 91.6176 6.00781C93.2044 6.00781 94.5407 6.43089 95.6264 7.19243C96.545 7.86935 97.0461 8.80012 97.2132 9.39243L93.8725 10.8309C93.7055 10.3232 93.2879 9.2232 91.6176 9.2232C90.6154 9.2232 89.8637 9.8155 89.8637 10.577C89.8637 11.4232 90.6989 11.8463 91.1165 11.9309L93.2044 12.354C96.0439 12.9463 97.6308 14.6386 97.6308 16.8386C97.5472 19.2924 95.7934 21.8309 91.7846 21.8309Z" fill="white"/>
<path d="M104.479 21.8309C102.892 21.8309 101.64 21.4924 100.554 20.8155C99.5517 20.1386 99.0506 19.377 98.7165 18.7001L102.057 17.177C102.475 18.0232 103.31 18.5309 104.479 18.5309C105.648 18.5309 106.316 18.0232 106.316 17.177C106.316 16.4155 105.815 15.9078 104.813 15.7386L102.892 15.3155C100.22 14.7232 98.7165 13.2001 98.7165 10.9155C98.7165 8.1232 101.138 6.00781 104.312 6.00781C105.899 6.00781 107.235 6.43089 108.321 7.19243C109.24 7.86935 109.741 8.80012 109.908 9.39243L106.567 10.8309C106.4 10.3232 105.982 9.2232 104.312 9.2232C103.31 9.2232 102.558 9.8155 102.558 10.577C102.558 11.4232 103.393 11.8463 103.811 11.9309L105.899 12.354C108.738 12.9463 110.325 14.6386 110.325 16.8386C110.325 19.2924 108.488 21.8309 104.479 21.8309Z" fill="white"/>
<path d="M112.413 2.28462C112.413 3.55385 113.499 4.56923 114.752 4.56923C116.004 4.56923 117.09 3.55385 117.09 2.28462C117.09 1.01538 116.004 0 114.752 0C113.499 0 112.413 1.01538 112.413 2.28462Z" fill="white"/>
</g>
<path d="M81.2239 39.1092C80.7105 39.1092 80.2485 38.9882 79.8379 38.7462C79.4272 38.5042 79.1009 38.1778 78.8589 37.7672C78.6169 37.3492 78.4958 36.8835 78.4958 36.3702C78.4958 35.8642 78.6169 35.4095 78.8589 35.0062C79.1009 34.5955 79.4272 34.2692 79.8379 34.0272C80.2485 33.7852 80.7105 33.6642 81.2239 33.6642C81.7299 33.6642 82.1882 33.7852 82.5989 34.0272C83.0169 34.2618 83.3468 34.5845 83.5888 34.9952C83.8308 35.4058 83.9519 35.8642 83.9519 36.3702C83.9519 36.8835 83.8308 37.3492 83.5888 37.7672C83.3468 38.1778 83.0169 38.5042 82.5989 38.7462C82.1882 38.9882 81.7299 39.1092 81.2239 39.1092ZM81.2239 38.1522C81.5539 38.1522 81.8472 38.0752 82.1039 37.9212C82.3605 37.7672 82.5622 37.5582 82.7089 37.2942C82.8555 37.0228 82.9289 36.7148 82.9289 36.3702C82.9289 36.0328 82.8518 35.7322 82.6978 35.4682C82.5512 35.2042 82.3495 34.9988 82.0929 34.8522C81.8435 34.6982 81.5539 34.6212 81.2239 34.6212C80.8939 34.6212 80.6005 34.6982 80.3439 34.8522C80.0872 34.9988 79.8855 35.2042 79.7388 35.4682C79.5922 35.7322 79.5189 36.0328 79.5189 36.3702C79.5189 36.7148 79.5922 37.0228 79.7388 37.2942C79.8855 37.5582 80.0872 37.7672 80.3439 37.9212C80.6005 38.0752 80.8939 38.1522 81.2239 38.1522Z" fill="white"/>
<path d="M85.6542 38.9992V33.2022C85.6542 32.7988 85.7385 32.4468 85.9072 32.1462C86.0832 31.8382 86.3252 31.5962 86.6332 31.4202C86.9412 31.2368 87.2969 31.1452 87.7002 31.1452C88.1109 31.1452 88.4482 31.2332 88.7122 31.4092C88.9762 31.5852 89.1705 31.8272 89.2952 32.1352C89.4272 32.4358 89.4932 32.7805 89.4932 33.1692L88.7672 33.1582C88.7599 32.8208 88.6682 32.5532 88.4922 32.3552C88.3162 32.1498 88.0522 32.0472 87.7002 32.0472C87.3555 32.0472 87.0915 32.1498 86.9082 32.3552C86.7322 32.5532 86.6442 32.8282 86.6442 33.1802V38.9992H85.6542ZM84.3672 34.6762V33.7742H91.4182V34.6762H84.3672ZM88.7672 38.9992V32.9932C88.7672 32.6045 88.8515 32.2672 89.0202 31.9812C89.1889 31.6878 89.4199 31.4568 89.7132 31.2882C90.0139 31.1195 90.3622 31.0352 90.7582 31.0352C91.0589 31.0352 91.3192 31.0865 91.5392 31.1892C91.7592 31.2918 91.9609 31.4422 92.1442 31.6402L91.4952 32.2782C91.3999 32.1755 91.2935 32.0985 91.1762 32.0472C91.0589 31.9885 90.9159 31.9592 90.7472 31.9592C90.4319 31.9592 90.1862 32.0508 90.0102 32.2342C89.8415 32.4175 89.7572 32.6705 89.7572 32.9932V38.9992H88.7672Z" fill="white"/>
<path d="M92.4152 38.9992V33.7742H93.4052V38.9992H92.4152ZM92.9102 32.7292C92.7269 32.7292 92.5766 32.6705 92.4592 32.5532C92.3419 32.4285 92.2832 32.2745 92.2832 32.0912C92.2832 31.9152 92.3419 31.7685 92.4592 31.6512C92.5766 31.5265 92.7269 31.4642 92.9102 31.4642C93.0936 31.4642 93.2439 31.5265 93.3612 31.6512C93.4786 31.7685 93.5372 31.9152 93.5372 32.0912C93.5372 32.2745 93.4786 32.4285 93.3612 32.5532C93.2439 32.6705 93.0936 32.7292 92.9102 32.7292Z" fill="white"/>
<path d="M97.2512 39.1092C96.7379 39.1092 96.2722 38.9882 95.8542 38.7462C95.4435 38.5042 95.1172 38.1778 94.8752 37.7672C94.6405 37.3492 94.5232 36.8872 94.5232 36.3812C94.5232 35.8678 94.6405 35.4058 94.8752 34.9952C95.1172 34.5845 95.4435 34.2618 95.8542 34.0272C96.2722 33.7852 96.7379 33.6642 97.2512 33.6642C97.6545 33.6642 98.0285 33.7412 98.3732 33.8952C98.7179 34.0418 99.0149 34.2582 99.2642 34.5442L98.6042 35.2042C98.4429 35.0135 98.2449 34.8705 98.0102 34.7752C97.7829 34.6725 97.5299 34.6212 97.2512 34.6212C96.9212 34.6212 96.6279 34.6982 96.3712 34.8522C96.1145 34.9988 95.9129 35.2042 95.7662 35.4682C95.6195 35.7322 95.5462 36.0365 95.5462 36.3812C95.5462 36.7258 95.6195 37.0302 95.7662 37.2942C95.9129 37.5582 96.1145 37.7672 96.3712 37.9212C96.6279 38.0752 96.9212 38.1522 97.2512 38.1522C97.5299 38.1522 97.7829 38.1045 98.0102 38.0092C98.2449 37.9065 98.4465 37.7598 98.6152 37.5692L99.2642 38.2292C99.0222 38.5078 98.7252 38.7242 98.3732 38.8782C98.0285 39.0322 97.6545 39.1092 97.2512 39.1092Z" fill="white"/>
<path d="M100.257 38.9992V33.7742H101.247V38.9992H100.257ZM100.752 32.7292C100.569 32.7292 100.418 32.6705 100.301 32.5532C100.184 32.4285 100.125 32.2745 100.125 32.0912C100.125 31.9152 100.184 31.7685 100.301 31.6512C100.418 31.5265 100.569 31.4642 100.752 31.4642C100.935 31.4642 101.086 31.5265 101.203 31.6512C101.32 31.7685 101.379 31.9152 101.379 32.0912C101.379 32.2745 101.32 32.4285 101.203 32.5532C101.086 32.6705 100.935 32.7292 100.752 32.7292Z" fill="white"/>
<path d="M104.928 39.1092C104.451 39.1092 104.019 38.9918 103.63 38.7572C103.241 38.5152 102.933 38.1888 102.706 37.7782C102.486 37.3675 102.376 36.9055 102.376 36.3922C102.376 35.8788 102.486 35.4168 102.706 35.0062C102.933 34.5955 103.238 34.2692 103.619 34.0272C104.008 33.7852 104.444 33.6642 104.928 33.6642C105.324 33.6642 105.676 33.7485 105.984 33.9172C106.299 34.0785 106.552 34.3058 106.743 34.5992C106.934 34.8852 107.04 35.2188 107.062 35.6002V37.1732C107.04 37.5472 106.934 37.8808 106.743 38.1742C106.56 38.4675 106.31 38.6985 105.995 38.8672C105.687 39.0285 105.331 39.1092 104.928 39.1092ZM105.093 38.1742C105.584 38.1742 105.98 38.0092 106.281 37.6792C106.582 37.3418 106.732 36.9128 106.732 36.3922C106.732 36.0328 106.662 35.7212 106.523 35.4572C106.391 35.1858 106.2 34.9768 105.951 34.8302C105.702 34.6762 105.412 34.5992 105.082 34.5992C104.752 34.5992 104.459 34.6762 104.202 34.8302C103.953 34.9842 103.755 35.1968 103.608 35.4682C103.469 35.7322 103.399 36.0365 103.399 36.3812C103.399 36.7332 103.469 37.0448 103.608 37.3162C103.755 37.5802 103.956 37.7892 104.213 37.9432C104.47 38.0972 104.763 38.1742 105.093 38.1742ZM106.666 38.9992V37.5912L106.853 36.3152L106.666 35.0502V33.7742H107.667V38.9992H106.666Z" fill="white"/>
<path d="M109.108 38.9992V31.1452H110.098V38.9992H109.108Z" fill="white"/>
<path d="M116.585 39.1092C116.189 39.1092 115.83 39.0285 115.507 38.8672C115.192 38.6985 114.939 38.4675 114.748 38.1742C114.557 37.8808 114.451 37.5472 114.429 37.1732V35.6002C114.451 35.2188 114.557 34.8852 114.748 34.5992C114.946 34.3058 115.203 34.0785 115.518 33.9172C115.841 33.7485 116.196 33.6642 116.585 33.6642C117.062 33.6642 117.491 33.7852 117.872 34.0272C118.261 34.2692 118.565 34.5955 118.785 35.0062C119.005 35.4168 119.115 35.8788 119.115 36.3922C119.115 36.9055 119.005 37.3675 118.785 37.7782C118.565 38.1888 118.261 38.5152 117.872 38.7572C117.491 38.9918 117.062 39.1092 116.585 39.1092ZM116.42 38.1742C116.75 38.1742 117.04 38.0972 117.289 37.9432C117.538 37.7892 117.736 37.5802 117.883 37.3162C118.03 37.0448 118.103 36.7332 118.103 36.3812C118.103 36.0365 118.03 35.7285 117.883 35.4572C117.736 35.1858 117.538 34.9768 117.289 34.8302C117.04 34.6762 116.754 34.5992 116.431 34.5992C116.101 34.5992 115.811 34.6762 115.562 34.8302C115.313 34.9768 115.118 35.1858 114.979 35.4572C114.84 35.7285 114.77 36.0402 114.77 36.3922C114.77 36.7368 114.836 37.0448 114.968 37.3162C115.107 37.5802 115.302 37.7892 115.551 37.9432C115.808 38.0972 116.097 38.1742 116.42 38.1742ZM113.835 41.1882V33.7742H114.825V35.1492L114.638 36.4142L114.825 37.6902V41.1882H113.835Z" fill="white"/>
<path d="M122.459 39.1092C121.983 39.1092 121.55 38.9918 121.161 38.7572C120.773 38.5152 120.465 38.1888 120.237 37.7782C120.017 37.3675 119.907 36.9055 119.907 36.3922C119.907 35.8788 120.017 35.4168 120.237 35.0062C120.465 34.5955 120.769 34.2692 121.15 34.0272C121.539 33.7852 121.975 33.6642 122.459 33.6642C122.855 33.6642 123.207 33.7485 123.515 33.9172C123.831 34.0785 124.084 34.3058 124.274 34.5992C124.465 34.8852 124.571 35.2188 124.593 35.6002V37.1732C124.571 37.5472 124.465 37.8808 124.274 38.1742C124.091 38.4675 123.842 38.6985 123.526 38.8672C123.218 39.0285 122.863 39.1092 122.459 39.1092ZM122.624 38.1742C123.116 38.1742 123.512 38.0092 123.812 37.6792C124.113 37.3418 124.263 36.9128 124.263 36.3922C124.263 36.0328 124.194 35.7212 124.054 35.4572C123.922 35.1858 123.732 34.9768 123.482 34.8302C123.233 34.6762 122.943 34.5992 122.613 34.5992C122.283 34.5992 121.99 34.6762 121.733 34.8302C121.484 34.9842 121.286 35.1968 121.139 35.4682C121 35.7322 120.93 36.0365 120.93 36.3812C120.93 36.7332 121 37.0448 121.139 37.3162C121.286 37.5802 121.488 37.7892 121.744 37.9432C122.001 38.0972 122.294 38.1742 122.624 38.1742ZM124.197 38.9992V37.5912L124.384 36.3152L124.197 35.0502V33.7742H125.198V38.9992H124.197Z" fill="white"/>
<path d="M126.64 38.9992V33.7742H127.63V38.9992H126.64ZM127.63 36.0182L127.256 35.8532C127.256 35.1858 127.41 34.6542 127.718 34.2582C128.026 33.8622 128.469 33.6642 129.049 33.6642C129.313 33.6642 129.551 33.7118 129.764 33.8072C129.976 33.8952 130.174 34.0455 130.358 34.2582L129.709 34.9292C129.599 34.8118 129.478 34.7275 129.346 34.6762C129.214 34.6248 129.06 34.5992 128.884 34.5992C128.517 34.5992 128.216 34.7165 127.982 34.9512C127.747 35.1858 127.63 35.5415 127.63 36.0182Z" fill="white"/>
<path d="M131.836 38.9992V31.5852H132.826V38.9992H131.836ZM130.549 34.6762V33.7742H134.113V34.6762H130.549Z" fill="white"/>
<path d="M138.779 38.9992V35.9522C138.779 35.5562 138.654 35.2298 138.405 34.9732C138.156 34.7165 137.833 34.5882 137.437 34.5882C137.173 34.5882 136.938 34.6468 136.733 34.7642C136.528 34.8815 136.366 35.0428 136.249 35.2482C136.132 35.4535 136.073 35.6882 136.073 35.9522L135.666 35.7212C135.666 35.3252 135.754 34.9732 135.93 34.6652C136.106 34.3572 136.352 34.1152 136.667 33.9392C136.982 33.7558 137.338 33.6642 137.734 33.6642C138.13 33.6642 138.478 33.7632 138.779 33.9612C139.087 34.1592 139.329 34.4195 139.505 34.7422C139.681 35.0575 139.769 35.3948 139.769 35.7542V38.9992H138.779ZM135.083 38.9992V33.7742H136.073V38.9992H135.083Z" fill="white"/>
<path d="M143.529 39.1092C143.009 39.1092 142.539 38.9918 142.121 38.7572C141.703 38.5152 141.373 38.1888 141.131 37.7782C140.889 37.3675 140.768 36.9018 140.768 36.3812C140.768 35.8678 140.886 35.4058 141.12 34.9952C141.362 34.5845 141.685 34.2618 142.088 34.0272C142.499 33.7852 142.957 33.6642 143.463 33.6642C143.947 33.6642 144.373 33.7742 144.739 33.9942C145.113 34.2142 145.403 34.5185 145.608 34.9072C145.821 35.2958 145.927 35.7358 145.927 36.2272C145.927 36.3005 145.924 36.3812 145.916 36.4692C145.909 36.5498 145.894 36.6452 145.872 36.7552H141.461V35.9302H145.344L144.981 36.2492C144.981 35.8972 144.919 35.6002 144.794 35.3582C144.67 35.1088 144.494 34.9182 144.266 34.7862C144.039 34.6468 143.764 34.5772 143.441 34.5772C143.104 34.5772 142.807 34.6505 142.55 34.7972C142.294 34.9438 142.096 35.1492 141.956 35.4132C141.817 35.6772 141.747 35.9888 141.747 36.3482C141.747 36.7148 141.821 37.0375 141.967 37.3162C142.114 37.5875 142.323 37.8002 142.594 37.9542C142.866 38.1008 143.177 38.1742 143.529 38.1742C143.823 38.1742 144.09 38.1228 144.332 38.0202C144.582 37.9175 144.794 37.7635 144.97 37.5582L145.608 38.2072C145.359 38.5005 145.051 38.7242 144.684 38.8782C144.325 39.0322 143.94 39.1092 143.529 39.1092Z" fill="white"/>
<path d="M147.007 38.9992V33.7742H147.997V38.9992H147.007ZM147.997 36.0182L147.623 35.8532C147.623 35.1858 147.777 34.6542 148.085 34.2582C148.393 33.8622 148.836 33.6642 149.416 33.6642C149.68 33.6642 149.918 33.7118 150.131 33.8072C150.343 33.8952 150.541 34.0455 150.725 34.2582L150.076 34.9292C149.966 34.8118 149.845 34.7275 149.713 34.6762C149.581 34.6248 149.427 34.5992 149.251 34.5992C148.884 34.5992 148.583 34.7165 148.349 34.9512C148.114 35.1858 147.997 35.5415 147.997 36.0182Z" fill="white"/>
<defs>
<clipPath id="clip0_810_125">
<rect width="152" height="22" fill="white"/>
</clipPath>
</defs>
</svg>
