<svg width="152" height="22" viewBox="0 0 152 22" fill="none" xmlns="http://www.w3.org/2000/svg">
<mask id="mask0_2779_61" style="mask-type:luminance" maskUnits="userSpaceOnUse" x="0" y="0" width="152" height="22">
<path d="M152 0H0V22H152V0Z" fill="white"/>
</mask>
<g mask="url(#mask0_2779_61)">
<path d="M16.7015 21.8308C16.3674 21.8308 16.0333 21.8308 15.6158 21.8308C13.0267 21.8308 9.6026 21.8308 7.34766 21.8308L14.8641 1.86154C15.2817 0.761539 16.3674 0 17.6202 0H23.3828C24.385 0 25.1366 1.01538 24.7191 2.03077L18.1213 20.8154V20.9C17.9542 21.2385 17.7037 21.5769 17.2861 21.7462C17.2861 21.7462 17.2026 21.7462 17.2026 21.8308H17.1191C17.1191 21.8308 17.1191 21.8308 17.0355 21.8308C16.952 21.8308 16.952 21.8308 16.8685 21.8308H16.7015Z" fill="#136EF8"/>
<path d="M14.7815 21.8312C12.1925 21.8312 8.76828 21.8312 6.51334 21.8312H5.3441C4.75949 21.8312 4.34191 21.4927 4.09136 20.985L4.00784 20.7312L0.0825704 9.30811C-0.335012 8.37734 0.416636 7.27734 1.41883 7.27734H6.93092C8.18367 7.27734 9.26938 8.03888 9.77048 9.2235L14.5309 20.8158C14.7815 21.3235 15.1991 21.8312 15.7837 21.8312H14.7815Z" fill="#60D0FF"/>
<path d="M14.5325 20.9003C14.6995 21.408 15.2006 21.9157 15.7852 21.9157H14.8666C12.2775 21.9157 9.68854 21.9157 7.43359 21.9157L11.0248 12.2695L14.5325 20.9003Z" fill="#2D7FFF"/>
<path d="M15.8673 21.8326H15.7003C15.1157 21.8326 14.6981 21.3249 14.5311 20.8172L11.0234 12.1865L12.6102 7.87109L15.0322 20.0557C15.0322 20.0557 15.1157 21.4942 16.3684 21.8326H16.2849H16.2014C16.1179 21.8326 16.1179 21.8326 16.0344 21.8326H15.8673Z" fill="#0047D8"/>
<path d="M32.9879 21.9155C30.3154 21.9155 28.3945 20.1386 28.3945 17.6001C28.3945 15.0617 30.0649 13.2001 32.8209 12.777L37.7484 11.8463V11.7617C37.5813 10.3232 36.2451 9.64627 34.9923 9.64627C33.0715 9.64627 31.8187 11.0001 31.5682 11.3386L29.2297 8.88474C29.5638 8.46166 31.7352 6.00781 35.3264 6.00781C39.0846 6.00781 41.7572 8.54627 41.7572 12.1001V21.577H37.7484V19.7155H37.4143C37.4143 19.7155 35.911 21.9155 32.9879 21.9155ZM34.2407 15.2309C33.155 15.4001 32.4868 16.077 32.4868 16.9232C32.4868 17.9386 33.2385 18.6155 34.4077 18.6155C36.3286 18.6155 37.7484 17.0924 37.7484 15.0617V14.6386L34.2407 15.2309Z" fill="white"/>
<path d="M51.1934 21.8296C46.767 21.8296 43.1758 18.2757 43.1758 13.8757C43.1758 9.47572 46.767 5.92188 51.1934 5.92188C52.8638 5.92188 54.4506 6.42957 55.7033 7.36034L54.033 10.745C53.4484 10.2373 52.4462 9.72957 51.1934 9.72957C48.9385 9.72957 47.1846 11.5065 47.1846 13.9603C47.1846 16.3296 48.855 18.1911 51.1934 18.1911C52.4462 18.1911 53.3648 17.6834 54.033 17.1757L55.7033 20.5603C54.4506 21.4065 52.8638 21.8296 51.1934 21.8296Z" fill="white"/>
<path d="M64.0566 21.8296C59.6303 21.8296 56.0391 18.2757 56.0391 13.8757C56.0391 9.47572 59.6303 5.92188 64.0566 5.92188C65.727 5.92188 67.3138 6.42957 68.5665 7.36034L66.8962 10.745C66.3116 10.2373 65.3094 9.72957 64.0566 9.72957C61.8017 9.72957 60.0478 11.5065 60.0478 13.9603C60.0478 16.3296 61.7182 18.1911 64.0566 18.1911C65.3094 18.1911 66.3116 17.6834 66.8962 17.1757L68.5665 20.5603C67.3138 21.4065 65.727 21.8296 64.0566 21.8296Z" fill="white"/>
<path d="M77.084 21.8296C72.6576 21.8296 69.0664 18.2757 69.0664 13.8757C69.0664 11.7603 69.9016 9.81418 71.4049 8.29111C72.9082 6.76803 74.8291 5.92188 76.917 5.92188C81.0928 5.92188 84.4334 9.30649 84.4334 13.5373C84.4334 14.3834 84.3499 15.145 84.2664 15.3142H73.2422V15.3988C73.8269 17.1757 75.3302 18.1065 77.3345 18.1065C78.7543 18.1065 79.84 17.5988 80.4247 17.1757L83.2642 19.3757C82.8466 20.0526 80.5917 21.8296 77.084 21.8296ZM76.7499 9.56034C74.8291 9.56034 73.6598 10.9988 73.2422 12.268V12.3526H80.3411V12.268C79.84 11.0834 78.6708 9.56034 76.7499 9.56034Z" fill="white"/>
<path d="M143.897 21.8296C139.471 21.8296 135.879 18.2757 135.879 13.8757C135.879 11.7603 136.715 9.81418 138.218 8.29111C139.721 6.76803 141.642 5.92188 143.73 5.92188C147.906 5.92188 151.246 9.30649 151.246 13.5373C151.246 14.3834 151.163 15.145 151.079 15.3142H139.972V15.3988C140.556 17.1757 142.06 18.1065 144.064 18.1065C145.484 18.1065 146.569 17.5988 147.154 17.1757L149.994 19.3757C149.576 20.0526 147.405 21.8296 143.897 21.8296ZM143.563 9.56034C141.642 9.56034 140.473 10.9988 140.055 12.268V12.3526H147.154V12.268C146.653 11.0834 145.484 9.56034 143.563 9.56034Z" fill="white"/>
<path d="M112.664 21.8309V6.00781H116.673V21.8309H112.664Z" fill="white"/>
<path d="M119.844 21.8308C119.51 21.8308 119.176 21.5769 119.176 21.1538V0.676923C119.176 0.338462 119.51 0 119.844 0H126.358C128.446 0 130.2 0.592308 131.453 1.69231C132.622 2.70769 133.29 4.14615 133.29 5.75385C133.29 9.13846 130.451 10.2385 130.367 10.2385L130.117 10.3231L130.367 10.4077C130.367 10.4077 134.376 11.5077 134.376 15.6538C134.376 19.2923 131.369 21.8308 127.027 21.8308H119.844ZM123.352 17.9385H126.776C128.613 17.9385 129.783 16.8385 129.783 15.1462C129.783 13.4538 128.613 12.3538 126.776 12.3538H123.352V17.9385ZM123.352 8.54615H126.191C127.695 8.54615 128.78 7.61538 128.78 6.26154C128.78 4.90769 127.778 3.97692 126.191 3.97692H123.352V8.54615Z" fill="white"/>
<path d="M91.7821 21.8309C90.1953 21.8309 88.9425 21.4924 87.8568 20.8155C86.8546 20.1386 86.3535 19.377 86.0195 18.7001L89.3601 17.177C89.7777 18.0232 90.6129 18.5309 91.7821 18.5309C92.8678 18.5309 93.6195 18.0232 93.6195 17.177C93.6195 16.4155 93.1184 15.9078 92.1162 15.7386L90.1953 15.3155C87.5228 14.7232 86.0195 13.2001 86.0195 10.9155C86.0195 8.1232 88.4414 6.00781 91.6151 6.00781C93.2019 6.00781 94.5382 6.43089 95.6239 7.19243C96.5425 7.86935 97.0436 8.80012 97.2107 9.39243L93.87 10.8309C93.703 10.3232 93.2854 9.2232 91.6151 9.2232C90.6129 9.2232 89.8612 9.8155 89.8612 10.577C89.8612 11.4232 90.6964 11.8463 91.114 11.9309L93.2019 12.354C96.0414 12.9463 97.6283 14.6386 97.6283 16.8386C97.5447 19.2924 95.7909 21.8309 91.7821 21.8309Z" fill="white"/>
<path d="M104.477 21.8309C102.89 21.8309 101.638 21.4924 100.552 20.8155C99.55 20.1386 99.0489 19.377 98.7148 18.7001L102.055 17.177C102.473 18.0232 103.308 18.5309 104.477 18.5309C105.646 18.5309 106.314 18.0232 106.314 17.177C106.314 16.4155 105.813 15.9078 104.811 15.7386L102.89 15.3155C100.218 14.7232 98.7148 13.2001 98.7148 10.9155C98.7148 8.1232 101.136 6.00781 104.31 6.00781C105.897 6.00781 107.233 6.43089 108.319 7.19243C109.238 7.86935 109.739 8.80012 109.906 9.39243L106.565 10.8309C106.398 10.3232 105.98 9.2232 104.31 9.2232C103.308 9.2232 102.556 9.8155 102.556 10.577C102.556 11.4232 103.391 11.8463 103.809 11.9309L105.897 12.354C108.736 12.9463 110.323 14.6386 110.323 16.8386C110.323 19.2924 108.486 21.8309 104.477 21.8309Z" fill="white"/>
<path d="M112.41 2.28462C112.41 3.55385 113.496 4.56923 114.749 4.56923C116.001 4.56923 117.087 3.55385 117.087 2.28462C117.087 1.01538 116.001 0 114.749 0C113.496 0 112.41 1.01538 112.41 2.28462Z" fill="white"/>
</g>
</svg>
