<svg width="120" height="87" viewBox="0 0 120 87" fill="none" xmlns="http://www.w3.org/2000/svg">
<g clip-path="url(#clip0_419_3513)">
<path d="M106.407 41.2915C106.407 40.3817 106.148 39.6307 105.587 39.0096C105.025 38.4031 104.233 38.0998 103.211 38.0998C102.088 38.0998 101.21 38.5186 100.59 39.3418C100.158 39.9195 99.8704 40.7283 99.7408 41.7392H106.407V41.2915ZM113.506 45.8119H99.6976C99.8128 46.9673 100.13 47.8627 100.662 48.5126C101.339 49.3358 102.304 49.7547 103.542 49.7547C104.492 49.7547 105.342 49.4947 106.062 48.9603C106.782 48.426 107.358 47.8338 107.804 47.1695L112.988 50.4046C112.34 51.8199 111.188 52.932 109.518 53.7263C107.847 54.5206 105.918 54.925 103.729 54.925C100.331 54.925 97.6098 53.9718 95.5796 52.051C93.5493 50.1446 92.5414 47.5594 92.5414 44.3388V43.7178C92.5414 40.4828 93.5637 37.912 95.6228 36.0057C97.6674 34.0993 100.245 33.1461 103.326 33.1461C106.407 33.1461 108.927 34.0415 110.756 35.8324C112.585 37.6232 113.506 40.1361 113.506 43.3856V45.8408V45.8119ZM89.3017 33.175C88.5817 33.175 87.8906 33.4205 87.2426 33.9115C86.5947 34.4026 86.1051 34.9947 85.7883 35.7024H85.6875L85.5868 33.7238H78.6033V54.2895H85.8459V41.8692C86.1051 41.1327 86.5515 40.5261 87.1706 40.0639C87.7898 39.6018 88.4521 39.3563 89.1721 39.3563C89.4457 39.3563 89.7048 39.3563 89.9352 39.3996C90.18 39.4285 90.396 39.4718 90.612 39.5296V33.4349C90.4968 33.3772 90.3096 33.3194 90.0648 33.2616C89.82 33.2039 89.5608 33.1605 89.3017 33.1605M66.969 47.054C66.7243 47.6605 66.3067 48.1949 65.7307 48.6426C65.1548 49.0903 64.5068 49.307 63.8013 49.307C63.0958 49.307 62.4766 49.0903 62.0158 48.6571C61.5551 48.2238 61.3103 47.3717 61.3103 46.1008V33.7093H54.0821V45.8119C54.0821 49.0037 54.7732 51.2855 56.1411 52.6431C57.509 54.0007 59.2081 54.6939 61.2239 54.6939C62.5054 54.6939 63.6573 54.4628 64.694 54.0151C65.7307 53.5674 66.4939 52.9608 66.9978 52.181H67.0986L67.2282 54.2895H74.1541V33.7238H66.9546V47.0684L66.969 47.054ZM47.8762 29.0156H40.7343V33.7093H38.0562V38.8941H40.6911V47.4728C40.6911 50.0146 41.3679 51.8777 42.7358 53.0619C44.1037 54.2462 45.8891 54.8383 48.1066 54.8383C48.7401 54.8383 49.3305 54.7806 49.892 54.6506C50.4536 54.5206 50.8567 54.3906 51.1303 54.2318V49.307C50.9143 49.3936 50.6695 49.4803 50.396 49.5525C50.1368 49.6247 49.8776 49.6536 49.6328 49.6536C49.1145 49.6536 48.6969 49.4947 48.3657 49.1625C48.0346 48.8304 47.8762 48.1949 47.8762 47.2562V38.8652H51.2887V33.6805H47.8762V28.9867V29.0156ZM28.1066 47.054C27.8618 47.6605 27.4442 48.1949 26.8683 48.6426C26.2923 49.0903 25.6443 49.307 24.9388 49.307C24.2333 49.307 23.6141 49.0903 23.1533 48.6571C22.6926 48.2238 22.4622 47.3717 22.4622 46.1008V33.7093H15.234V45.8119C15.234 49.0037 15.9251 51.2855 17.293 52.6431C18.6609 54.0007 20.36 54.6939 22.3758 54.6939C23.6573 54.6939 24.8092 54.4628 25.8459 54.0151C26.8827 53.5674 27.6458 52.9608 28.1497 52.181H28.2505L28.3945 54.2895H35.3204V33.7238H28.121V47.0684L28.1066 47.054ZM10.8279 24.1486C8.45212 24.1486 6.42189 24.8707 4.76602 26.3005C3.11015 27.7303 2.27502 29.9255 2.27502 32.8717V33.7093H0V38.8941H2.30382V54.2895H9.48884V38.8941H12.6278V33.7093H9.46004V33.0883C9.46004 31.8607 9.69043 30.9364 10.1368 30.3299C10.5832 29.7233 11.1879 29.42 11.951 29.42C12.239 29.42 12.5126 29.4344 12.7574 29.4778C13.0022 29.5211 13.2469 29.5644 13.4629 29.6078L13.6213 24.4663C13.2901 24.3652 12.8726 24.2786 12.383 24.2352C11.8934 24.1775 11.3751 24.163 10.8423 24.163M74.5572 0.607756L71.9798 10.804C71.8935 11.3094 71.8071 11.8149 71.7351 12.306C71.6631 12.797 71.5911 13.288 71.5335 13.7791H71.4183C71.3463 13.288 71.2599 12.797 71.1735 12.306C71.0871 11.8149 70.9863 11.3094 70.8567 10.804L68.0346 0.607756H60.7775L58.1426 10.7895C58.0274 11.295 57.941 11.8005 57.8834 12.2915C57.8258 12.7826 57.7826 13.2736 57.7394 13.7646H57.5954C57.5378 13.2736 57.4514 12.7826 57.3794 12.2915C57.293 11.8005 57.1922 11.295 57.077 10.7895L54.5716 0.607756H47.2714L53.2469 21.1735H60.5904L63.2541 10.8762C63.3693 10.414 63.4845 9.92299 63.5997 9.40307C63.7149 8.88315 63.7869 8.39212 63.8445 7.90108H63.9021C63.9597 8.37768 64.0317 8.88315 64.1181 9.38863C64.2189 9.89411 64.3341 10.3996 64.478 10.8762L67.4874 21.1735H74.7732L80.7631 0.607756H74.5716H74.5572ZM33.3765 6.24023C32.9446 6.81791 32.6566 7.62668 32.527 8.63764H39.1937V8.18993C39.1937 7.28007 38.9345 6.52907 38.3729 5.90805C37.8114 5.30148 37.0194 4.99819 35.9971 4.99819C34.874 4.99819 33.9957 5.41702 33.3765 6.24023ZM42.3038 20.5958C40.6336 21.3901 38.7041 21.7945 36.5155 21.7945C33.1174 21.7945 30.396 20.8413 28.3657 18.9205C26.3355 17.0141 25.3276 14.429 25.3276 11.2084V10.5873C25.3276 7.35228 26.3499 4.78156 28.4089 2.87519C30.4536 0.968812 33.031 0.015625 36.1123 0.015625C39.1937 0.015625 41.7135 0.911043 43.5421 2.70188C45.3852 4.49272 46.2923 7.00566 46.2923 10.2552V12.7103H32.4838C32.599 13.8657 32.9158 14.7611 33.4485 15.411C34.1253 16.2342 35.09 16.6531 36.3283 16.6531C37.2786 16.6531 38.1282 16.3931 38.8481 15.8587C39.568 15.3244 40.144 14.7323 40.5904 14.0679L45.7739 17.303C45.126 18.7183 43.9741 19.8304 42.3038 20.6247M14.7012 21.2168V8.29102C14.7012 7.25118 14.4852 6.54351 14.0533 6.15357C13.6213 5.76363 13.0022 5.57588 12.2246 5.57588C11.6055 5.57588 10.9863 5.76363 10.3816 6.13913C9.77682 6.51463 9.33045 7.09232 9.04248 7.85776V21.1879H1.84305V0.607756H8.7977L8.89849 2.71632H9.01368C9.38805 2.00865 10.0936 1.41652 11.1159 0.925485C12.1526 0.43445 13.2757 0.188932 14.4996 0.188932C16.6307 0.188932 18.4017 0.795505 19.8128 1.99421C21.2239 3.20736 21.915 5.40258 21.915 8.59431V21.1879H14.7156L14.7012 21.2168Z" fill="white"/>
<path d="M114.097 68.1118C114.097 67.9096 114.054 67.7941 113.968 67.7507C113.881 67.7074 113.665 67.6785 113.305 67.693C111.52 67.7218 109.619 68.8195 107.618 71.0002C105.616 73.181 103.86 75.8961 102.333 79.1457C103.716 80.1999 104.925 80.7199 105.962 80.7054C107.747 80.6765 109.562 79.2467 111.39 76.4161C113.219 73.5854 114.126 70.8125 114.083 68.1118M119.986 68.2273C120.001 69.7293 119.684 71.4913 119.036 73.5276C118.388 75.564 117.495 77.5281 116.387 79.4345C115.278 81.3409 113.867 82.9584 112.153 84.2871C110.44 85.6158 108.654 86.2946 106.783 86.3234C104.911 86.3523 102.78 85.4858 100.375 83.7238C99.756 85.558 99.2232 86.4823 98.8057 86.4823C98.1289 86.4823 97.2506 85.9335 96.1995 84.807C95.1484 83.6805 94.6156 82.7562 94.6012 82.0341C94.6012 81.312 95.0908 78.9579 96.1131 74.9718C99.1656 62.9848 100.663 54.3195 100.591 48.9758C100.591 47.9938 101.037 47.5027 101.988 47.4883C102.737 47.4883 103.759 48.1671 105.04 49.568C106.322 50.9689 106.984 52.2831 106.999 53.5251C107.042 56.428 106.264 60.9629 104.695 67.1153C108.352 63.1148 111.318 61.1073 113.593 61.064C115.091 61.0495 116.531 61.8583 117.899 63.5047C119.266 65.1511 119.972 66.7253 119.986 68.2273ZM86.3363 70.4081C86.2067 68.5451 85.8899 67.6208 85.3715 67.6352C84.0756 67.6496 82.6214 68.5162 81.0375 70.2348C79.4536 71.9534 78.1577 73.7876 77.1642 75.7228C76.1707 77.6581 75.6811 79.0879 75.6811 79.9977C75.6811 80.2577 75.7243 80.431 75.8107 80.5032C75.8971 80.5899 76.0987 80.6188 76.4155 80.6188C77.7114 80.6043 79.4392 79.6945 81.5702 77.8747C83.7013 76.0695 85.026 73.802 85.5011 71.0869C85.5299 70.6969 85.8035 70.4659 86.3219 70.3937M91.9086 68.0829C91.923 69.4116 91.4623 70.9425 90.5119 72.6755C91.1023 73.181 91.4047 73.6576 91.4047 74.0764C91.4047 74.4953 91.2319 75.3907 90.8575 76.7338C90.4831 78.0769 90.2383 79.1168 90.1232 79.8533C90.008 80.5899 89.9072 81.1676 89.8352 81.6008C89.7632 82.0197 89.7056 82.3663 89.6768 82.6118C89.648 82.8573 89.5904 83.1606 89.5184 83.5217C89.4464 83.8827 89.3888 84.1715 89.3312 84.3737C89.288 84.5904 89.216 84.8359 89.144 85.1103C89.072 85.3847 88.9856 85.6013 88.8849 85.7457C88.7841 85.8902 88.6833 86.049 88.5537 86.2079C88.3665 86.4679 88.0353 86.6123 87.589 86.6123C87.1282 86.6123 86.5666 86.1646 85.8899 85.2692C85.2132 84.3737 84.6948 83.2617 84.3492 81.9619C81.3399 85.1392 78.7913 86.7423 76.7034 86.7712C75.3067 86.7856 73.7805 86.0346 72.139 84.5037C70.4975 82.9728 69.6624 81.442 69.6336 79.8966C69.6048 78.3513 70.2815 76.1272 71.635 73.2388C72.9885 70.3503 74.8748 67.6641 77.265 65.18C79.6552 62.696 82.031 61.4395 84.4068 61.4106C85.7747 61.3961 87.3586 62.176 89.1728 63.7358C90.9871 65.31 91.8942 66.7542 91.923 68.0829M66.9122 50.1023C68.1649 51.5177 68.7985 52.8897 68.8273 54.1895C68.8417 55.4893 68.6833 57.8145 68.3377 61.1651C67.9921 64.5157 67.6178 67.1875 67.229 69.1805C64.6948 81.0231 62.8805 86.9589 61.815 86.9733C61.0951 86.9733 60.2024 86.4245 59.1368 85.2692C58.0569 84.1282 57.5242 83.175 57.5098 82.424C57.5098 82.3663 57.9273 80.6621 58.7625 77.3115C59.5976 73.9609 60.4183 69.686 61.2391 64.429C62.0598 59.1865 62.4342 54.175 62.3766 49.4235C62.3766 48.4848 62.8661 47.9938 63.8741 47.9793C64.6516 47.9793 65.6739 48.6725 66.9266 50.0879" fill="#F16B32"/>
</g>
<defs>
<clipPath id="clip0_419_3513">
<rect width="120" height="87" fill="white"/>
</clipPath>
</defs>
</svg>
