<svg width="891" height="292" viewBox="0 0 891 292" fill="none" xmlns="http://www.w3.org/2000/svg">
<path fill-rule="evenodd" clip-rule="evenodd" d="M890.895 96.4342C890.895 64.6547 875.502 39.5786 846.081 39.5786C816.536 39.5786 798.66 64.6547 798.66 96.1859C798.66 133.552 819.764 152.421 850.054 152.421C864.826 152.421 875.999 149.069 884.44 144.352V119.524C875.999 123.745 866.316 126.352 854.026 126.352C841.985 126.352 831.309 122.131 829.943 107.483H890.647C890.647 105.869 890.895 99.4136 890.895 96.4342ZM829.571 84.641C829.571 70.6133 838.136 64.7788 845.957 64.7788C853.53 64.7788 861.599 70.6133 861.599 84.641H829.571Z" fill="white"/>
<path fill-rule="evenodd" clip-rule="evenodd" d="M750.744 39.5786C738.578 39.5786 730.757 45.289 726.413 49.2615L724.799 41.5648H697.488V186.311L728.523 179.731L728.647 144.6C733.116 147.828 739.695 152.421 750.62 152.421C772.841 152.421 793.075 134.545 793.075 95.1928C792.951 59.1926 772.468 39.5786 750.744 39.5786ZM743.296 125.11C735.971 125.11 731.626 122.503 728.647 119.276L728.523 73.2203C731.751 69.6202 736.22 67.1375 743.296 67.1375C754.592 67.1375 762.413 79.7996 762.413 96.0618C762.413 112.696 754.716 125.11 743.296 125.11Z" fill="white"/>
<path fill-rule="evenodd" clip-rule="evenodd" d="M654.785 32.2543L685.944 25.5508V0.350586L654.785 6.92995V32.2543Z" fill="white"/>
<path d="M685.944 41.689H654.785V150.31H685.944V41.689Z" fill="white"/>
<path fill-rule="evenodd" clip-rule="evenodd" d="M621.394 50.8752L619.408 41.6889H592.594V150.31H623.628V76.6961C630.953 67.1374 643.367 68.8753 647.215 70.2409V41.6889C643.242 40.1993 628.718 37.4682 621.394 50.8752Z" fill="white"/>
<path fill-rule="evenodd" clip-rule="evenodd" d="M559.324 14.751L529.034 21.2062L528.91 120.641C528.91 139.014 542.69 152.545 561.062 152.545C571.242 152.545 578.69 150.683 582.786 148.449V123.248C578.814 124.862 559.2 130.573 559.2 112.2V68.1307H582.786V41.6891H559.2L559.324 14.751Z" fill="white"/>
<path fill-rule="evenodd" clip-rule="evenodd" d="M475.407 73.2203C475.407 68.3788 479.38 66.5168 485.959 66.5168C495.394 66.5168 507.311 69.3719 516.745 74.4616V45.289C506.442 41.1924 496.262 39.5786 485.959 39.5786C460.759 39.5786 444 52.7373 444 74.7099C444 108.972 491.173 103.51 491.173 118.283C491.173 123.993 486.207 125.855 479.255 125.855C468.952 125.855 455.793 121.634 445.366 115.924V145.469C456.91 150.435 468.58 152.545 479.255 152.545C505.076 152.545 522.828 139.759 522.828 117.538C522.704 80.5444 475.407 87.1238 475.407 73.2203Z" fill="white"/>
<path d="M784.927 258.768C784.268 255.213 783.084 252.514 781.372 250.671C779.727 248.828 777.192 247.907 773.769 247.907C771.531 247.907 769.655 248.302 768.141 249.092C766.693 249.816 765.508 250.737 764.587 251.856C763.731 252.975 763.106 254.16 762.711 255.411C762.382 256.661 762.184 257.78 762.118 258.768H784.927ZM762.118 267.654C762.316 272.196 763.468 275.487 765.574 277.528C767.681 279.569 770.709 280.589 774.658 280.589C777.489 280.589 779.924 279.898 781.965 278.515C784.005 277.067 785.256 275.553 785.717 273.973H798.059C796.084 280.095 793.056 284.472 788.975 287.105C784.894 289.738 779.957 291.055 774.164 291.055C770.149 291.055 766.529 290.43 763.303 289.179C760.078 287.862 757.346 286.019 755.108 283.65C752.87 281.28 751.126 278.45 749.875 275.158C748.69 271.867 748.098 268.247 748.098 264.297C748.098 260.479 748.723 256.925 749.974 253.633C751.224 250.342 753.002 247.512 755.305 245.142C757.609 242.707 760.341 240.798 763.501 239.415C766.726 238.033 770.281 237.342 774.164 237.342C778.509 237.342 782.294 238.198 785.519 239.909C788.745 241.555 791.378 243.793 793.418 246.623C795.525 249.454 797.039 252.679 797.96 256.299C798.882 259.92 799.211 263.705 798.947 267.654H762.118Z" fill="white"/>
<path d="M733.633 238.723H743.902V248.104H733.633V273.38C733.633 275.75 734.028 277.33 734.818 278.12C735.608 278.91 737.188 279.305 739.557 279.305C740.347 279.305 741.104 279.272 741.828 279.206C742.553 279.14 743.244 279.041 743.902 278.91V289.771C742.717 289.968 741.401 290.1 739.952 290.166C738.504 290.232 737.089 290.264 735.707 290.264C733.534 290.264 731.461 290.1 729.486 289.771C727.577 289.507 725.866 288.948 724.352 288.092C722.904 287.237 721.752 286.019 720.896 284.439C720.04 282.859 719.612 280.786 719.612 278.218V248.104H711.121V238.723H719.612V223.419H733.633V238.723Z" fill="white"/>
<path d="M658.572 254.423C658.769 251.132 659.592 248.4 661.04 246.228C662.489 244.056 664.332 242.312 666.57 240.995C668.808 239.679 671.309 238.757 674.074 238.23C676.904 237.638 679.735 237.342 682.565 237.342C685.132 237.342 687.732 237.539 690.365 237.934C692.998 238.263 695.401 238.955 697.573 240.008C699.746 241.061 701.523 242.542 702.905 244.451C704.287 246.294 704.979 248.762 704.979 251.856V278.417C704.979 280.72 705.11 282.926 705.374 285.032C705.637 287.138 706.098 288.718 706.756 289.771H692.538C692.274 288.981 692.044 288.192 691.847 287.402C691.715 286.546 691.616 285.69 691.55 284.835C689.312 287.138 686.679 288.751 683.651 289.673C680.623 290.594 677.53 291.055 674.37 291.055C671.934 291.055 669.663 290.759 667.557 290.166C665.451 289.574 663.608 288.652 662.028 287.402C660.448 286.151 659.197 284.571 658.276 282.662C657.42 280.753 656.992 278.482 656.992 275.849C656.992 272.953 657.486 270.583 658.473 268.74C659.526 266.831 660.843 265.317 662.423 264.198C664.068 263.079 665.911 262.257 667.952 261.73C670.058 261.138 672.165 260.677 674.271 260.348C676.378 260.019 678.451 259.755 680.492 259.558C682.532 259.36 684.342 259.064 685.922 258.669C687.502 258.274 688.753 257.715 689.674 256.991C690.596 256.201 691.024 255.082 690.958 253.633C690.958 252.12 690.695 250.935 690.168 250.079C689.707 249.157 689.049 248.466 688.193 248.005C687.403 247.479 686.449 247.15 685.33 247.018C684.277 246.821 683.125 246.722 681.874 246.722C679.109 246.722 676.937 247.314 675.357 248.499C673.778 249.684 672.856 251.659 672.593 254.423H658.572ZM690.958 264.791C690.365 265.317 689.608 265.745 688.687 266.074C687.831 266.338 686.877 266.568 685.824 266.766C684.836 266.963 683.783 267.128 682.664 267.259C681.545 267.391 680.426 267.555 679.307 267.753C678.254 267.95 677.2 268.214 676.147 268.543C675.16 268.872 674.271 269.333 673.481 269.925C672.757 270.452 672.165 271.143 671.704 271.999C671.243 272.854 671.013 273.94 671.013 275.257C671.013 276.508 671.243 277.561 671.704 278.417C672.165 279.272 672.79 279.963 673.58 280.49C674.37 280.951 675.292 281.28 676.345 281.477C677.398 281.675 678.484 281.774 679.603 281.774C682.368 281.774 684.507 281.313 686.021 280.391C687.535 279.47 688.654 278.384 689.378 277.133C690.102 275.817 690.53 274.5 690.662 273.184C690.859 271.867 690.958 270.814 690.958 270.024V264.791Z" fill="white"/>
<path d="M570.078 238.724H583.309V245.636H583.506C585.35 243.003 587.555 240.962 590.122 239.514C592.755 238.066 595.75 237.342 599.107 237.342C602.332 237.342 605.262 237.967 607.895 239.218C610.593 240.468 612.634 242.674 614.016 245.833C615.53 243.595 617.571 241.62 620.138 239.909C622.771 238.198 625.865 237.342 629.419 237.342C632.118 237.342 634.62 237.671 636.923 238.329C639.227 238.987 641.202 240.041 642.848 241.489C644.493 242.937 645.777 244.846 646.698 247.216C647.62 249.519 648.081 252.317 648.081 255.608V289.771H634.06V260.841C634.06 259.13 633.994 257.517 633.863 256.003C633.731 254.489 633.369 253.173 632.776 252.054C632.184 250.935 631.295 250.046 630.11 249.388C628.991 248.73 627.445 248.4 625.47 248.4C623.495 248.4 621.882 248.795 620.632 249.585C619.447 250.309 618.492 251.297 617.768 252.547C617.11 253.732 616.649 255.115 616.386 256.694C616.189 258.208 616.09 259.755 616.09 261.335V289.771H602.069V261.138C602.069 259.624 602.036 258.142 601.97 256.694C601.904 255.18 601.608 253.798 601.082 252.547C600.621 251.297 599.798 250.309 598.613 249.585C597.494 248.795 595.816 248.4 593.578 248.4C592.919 248.4 592.031 248.565 590.912 248.894C589.859 249.157 588.805 249.717 587.752 250.573C586.765 251.363 585.909 252.547 585.185 254.127C584.461 255.641 584.099 257.649 584.099 260.15V289.771H570.078V238.724Z" fill="white"/>
<path d="M558.646 230.824H544.625V219.271H558.646V230.824ZM544.625 238.723H558.646V289.77H544.625V238.723Z" fill="white"/>
<path d="M519.168 219.271H533.189V289.77H519.168V219.271Z" fill="white"/>
<path d="M494.06 242.969C493.797 241.192 493.204 239.579 492.283 238.131C491.361 236.617 490.209 235.301 488.827 234.182C487.444 233.063 485.865 232.207 484.087 231.614C482.376 230.956 480.566 230.627 478.657 230.627C475.168 230.627 472.206 231.318 469.77 232.701C467.335 234.017 465.36 235.827 463.846 238.131C462.332 240.369 461.213 242.936 460.489 245.833C459.831 248.729 459.502 251.724 459.502 254.818C459.502 257.78 459.831 260.676 460.489 263.507C461.213 266.271 462.332 268.773 463.846 271.011C465.36 273.249 467.335 275.059 469.77 276.441C472.206 277.758 475.168 278.416 478.657 278.416C483.396 278.416 487.082 276.968 489.715 274.072C492.414 271.175 494.06 267.357 494.652 262.618H509.66C509.265 267.028 508.245 271.011 506.6 274.565C504.954 278.12 502.782 281.148 500.083 283.649C497.384 286.15 494.224 288.059 490.604 289.376C486.984 290.692 483.001 291.351 478.657 291.351C473.259 291.351 468.388 290.429 464.044 288.586C459.765 286.677 456.145 284.077 453.183 280.786C450.22 277.494 447.949 273.644 446.37 269.233C444.79 264.757 444 259.952 444 254.818C444 249.552 444.79 244.681 446.37 240.205C447.949 235.663 450.22 231.713 453.183 228.356C456.145 224.999 459.765 222.366 464.044 220.457C468.388 218.548 473.259 217.594 478.657 217.594C482.541 217.594 486.194 218.153 489.617 219.272C493.105 220.391 496.199 222.037 498.898 224.209C501.663 226.316 503.934 228.949 505.711 232.108C507.488 235.268 508.607 238.888 509.068 242.969H494.06Z" fill="white"/>
<path d="M285.864 138.578C249.056 138.578 207.69 113.126 172 88.6202C134.16 62.4804 92.536 28 58.136 28C23.048 28 0 60.0728 0 88.6202V91.0278C0 136.638 18.1214 180.379 50.3776 212.63C82.6339 244.882 126.383 263 172 263C217.617 263 261.366 244.882 293.622 212.63C325.879 180.379 344 136.638 344 91.0278C342.882 114.072 326.542 138.578 285.864 138.578Z" fill="url(#paint0_linear_2779_26)"/>
<path d="M285.864 28.0002C251.464 28.0002 209.84 62.4072 172 88.5565C136.31 113.071 94.944 138.447 58.136 138.447C17.458 138.447 1.118 114.018 0 90.965C0 136.592 18.1214 180.349 50.3776 212.612C82.6339 244.875 126.383 263 172 263C217.617 263 261.366 244.875 293.622 212.612C325.879 180.349 344 136.592 344 90.965V88.5565C344 59.9987 321.038 27.9142 285.864 28.0002Z" fill="url(#paint1_linear_2779_26)"/>
<path d="M172 88C207.69 112.593 249.056 138.049 285.864 138.049C326.542 138.049 342.882 113.542 344 90.4162C344 136.188 325.879 180.086 293.622 212.451C261.366 244.817 217.617 263 172 263C126.383 263 82.6339 244.817 50.3776 212.451C18.1214 180.086 0 136.188 0 90.4162C1.118 113.542 17.458 138.136 58.136 138.136C94.944 138.136 136.31 112.593 172 88Z" fill="url(#paint2_linear_2779_26)"/>
<defs>
<linearGradient id="paint0_linear_2779_26" x1="172" y1="134.623" x2="172" y2="39.5221" gradientUnits="userSpaceOnUse">
<stop stop-color="#FFD748"/>
<stop offset="0.21" stop-color="#FFD644"/>
<stop offset="0.33" stop-color="#FFD438"/>
<stop offset="0.45" stop-color="#FFD024"/>
<stop offset="0.57" stop-color="#FFCB09"/>
<stop offset="1" stop-color="#FFC900"/>
</linearGradient>
<linearGradient id="paint1_linear_2779_26" x1="172" y1="39.3545" x2="172" y2="145.5" gradientUnits="userSpaceOnUse">
<stop stop-color="#009C00"/>
<stop offset="1" stop-color="#00BA18"/>
</linearGradient>
<linearGradient id="paint2_linear_2779_26" x1="172" y1="260.584" x2="172" y2="88" gradientUnits="userSpaceOnUse">
<stop offset="0.13" stop-color="#00CB1B"/>
<stop offset="1" stop-color="#00D924"/>
</linearGradient>
</defs>
</svg>
